<?xml version="1.0" encoding="utf-8"?>
<!-- Generator: Adobe Illustrator 19.1.0, SVG Export Plug-In . SVG Version: 6.00 Build 0)  -->
<svg version="1.1" id="Layer_1" xmlns="http://www.w3.org/2000/svg" xmlns:xlink="http://www.w3.org/1999/xlink" x="0px" y="0px"
	 viewBox="0 0 792 612" style="enable-background:new 0 0 792 612;" xml:space="preserve">
<style type="text/css">
	.st0{fill:#FFFFFF;}
</style>
<g>
	<g>
		<g>
			<g>
				<g>
					<path class="st0" d="M167.6,332.4c3.8-4.7,4-11.5,0.3-16.4l-18.2-24.2c-7.1,7.1-9.8,16.8-8.2,25.9L167.6,332.4z"/>
					<path class="st0" d="M122.5,307l-9.3-24.7c-1.7-4.4-5.9-7.3-10.6-7.3l10,26.4L122.5,307z"/>
				</g>
				<path class="st0" d="M180.2,346.9c0.1-0.4,0.2-0.8,0.2-1.2c0-1.8-1-3.3-2.4-4.1L74.3,283.4c0,5.2,2.8,9.9,7.3,12.5l36.6,20.6
					L123,329c-12.6-7.8-29.3-6.3-40.3,4.6l0,0l45.7,24.6c5.2,2.8,11.6,1.9,15.8-2.3l5.5-5.5h36.6v0L180.2,346.9z M175.7,347.2
					c-0.8,0-1.5-0.7-1.5-1.5c0-0.8,0.7-1.5,1.5-1.5c0.8,0,1.5,0.7,1.5,1.5C177.2,346.6,176.5,347.2,175.7,347.2z"/>
			</g>
		</g>
		<rect x="223.5" y="290.9" class="st0" width="4.5" height="53"/>
		<g>
			<path class="st0" d="M272.1,298.5v38.3h-8.4v-38.3H272.1z"/>
			<path class="st0" d="M296.9,298.5c1.8,0,3.5,0.2,5,0.5c1.5,0.3,2.8,0.8,3.9,1.6c1.1,0.7,1.9,1.7,2.5,2.9c0.6,1.2,0.9,2.7,0.9,4.5
				c0,1.9-0.4,3.5-1.3,4.8c-0.9,1.3-2.2,2.3-3.9,3.2c2.4,0.7,4.1,1.9,5.3,3.6c1.2,1.7,1.7,3.7,1.7,6.1c0,1.9-0.4,3.6-1.1,5
				c-0.8,1.4-1.8,2.6-3,3.5c-1.3,0.9-2.7,1.6-4.3,2c-1.6,0.4-3.3,0.6-5,0.6h-18.6v-38.3H296.9z M295.9,314c1.5,0,2.7-0.4,3.7-1.1
				c1-0.7,1.4-1.9,1.4-3.5c0-0.9-0.2-1.6-0.5-2.2c-0.3-0.6-0.8-1-1.3-1.3c-0.5-0.3-1.2-0.5-1.9-0.7c-0.7-0.1-1.4-0.2-2.2-0.2h-7.9v9
				H295.9z M296.3,330.3c0.8,0,1.6-0.1,2.4-0.2c0.8-0.2,1.4-0.4,2-0.8c0.6-0.4,1-0.9,1.4-1.5c0.3-0.6,0.5-1.5,0.5-2.5
				c0-2-0.6-3.4-1.7-4.2c-1.1-0.8-2.6-1.3-4.4-1.3h-9.2v10.5H296.3z"/>
			<path class="st0" d="M327.9,298.5l9,26.4h0.1l8.5-26.4h11.9v38.3h-7.9v-27.2h-0.1l-9.4,27.2h-6.5l-9.4-26.9h-0.1v26.9H316v-38.3
				H327.9z"/>
			<path class="st0" d="M399.3,303.7c-1.7-1.2-3.9-1.9-6.5-1.9c-1.1,0-2.1,0.1-3.2,0.3c-1,0.2-2,0.6-2.8,1.1c-0.8,0.5-1.4,1.2-1.9,2
				c-0.5,0.8-0.7,1.9-0.7,3.1c0,1.2,0.3,2.1,1,2.9c0.7,0.7,1.6,1.3,2.8,1.8c1.2,0.5,2.5,0.8,3.9,1.2c1.5,0.3,3,0.6,4.5,1
				c1.5,0.4,3,0.8,4.5,1.3c1.5,0.5,2.8,1.1,3.9,2c1.2,0.8,2.1,1.9,2.8,3.1c0.7,1.3,1,2.8,1,4.7c0,2-0.5,3.8-1.4,5.2
				c-0.9,1.4-2.1,2.6-3.5,3.5c-1.4,0.9-3,1.6-4.8,2c-1.8,0.4-3.5,0.6-5.3,0.6c-2.1,0-4.2-0.3-6.1-0.8c-1.9-0.5-3.6-1.3-5-2.4
				c-1.4-1.1-2.6-2.5-3.4-4.2c-0.8-1.7-1.3-3.7-1.3-6h4.8c0,1.6,0.3,3,0.9,4.2c0.6,1.2,1.4,2.1,2.5,2.9c1,0.8,2.2,1.3,3.6,1.7
				c1.4,0.4,2.8,0.5,4.2,0.5c1.1,0,2.3-0.1,3.5-0.3c1.2-0.2,2.2-0.6,3.1-1.1c0.9-0.5,1.7-1.2,2.3-2.1c0.6-0.9,0.9-2,0.9-3.4
				c0-1.3-0.3-2.4-1-3.2c-0.7-0.8-1.6-1.5-2.8-2c-1.2-0.5-2.5-0.9-3.9-1.3c-1.5-0.3-3-0.7-4.5-1c-1.5-0.3-3-0.7-4.5-1.2
				c-1.5-0.4-2.8-1-3.9-1.8c-1.2-0.7-2.1-1.7-2.8-2.8c-0.7-1.2-1-2.6-1-4.4c0-1.9,0.4-3.6,1.2-5c0.8-1.4,1.8-2.6,3.1-3.5
				c1.3-0.9,2.8-1.6,4.5-2c1.7-0.4,3.4-0.7,5.1-0.7c2,0,3.8,0.2,5.5,0.7c1.7,0.5,3.2,1.2,4.4,2.2c1.3,1,2.3,2.3,3,3.8
				c0.7,1.5,1.1,3.3,1.2,5.4h-4.8C402,307,401,305,399.3,303.7z"/>
			<path class="st0" d="M435.7,336.8l-5.6-22.1h-0.1l-5.6,22.1h-4.9l-8.9-27.7h5l6.3,22.7h0.1l5.6-22.7h5l5.8,22.7h0.1l6.2-22.7h4.7
				l-8.9,27.7H435.7z"/>
			<path class="st0" d="M452.8,304.1v-5.6h4.6v5.6H452.8z M457.4,309.1v27.7h-4.6v-27.7H457.4z"/>
			<path class="st0" d="M460.7,313.1v-4h4.7v-4.1c0-2.3,0.7-4,2-5.1c1.3-1.2,3.2-1.7,5.7-1.7c0.4,0,0.9,0,1.5,0.1
				c0.6,0.1,1,0.2,1.5,0.3v4c-0.4-0.1-0.8-0.2-1.3-0.3c-0.5-0.1-0.9-0.1-1.3-0.1c-1.1,0-2,0.2-2.6,0.6c-0.6,0.4-0.9,1.3-0.9,2.5v3.9
				h5.4v4h-5.4v23.7h-4.6v-23.7H460.7z"/>
			<path class="st0" d="M491.9,309.1v4h-5.5v17.2c0,0.5,0,1,0.1,1.3c0.1,0.3,0.3,0.6,0.5,0.8c0.2,0.2,0.6,0.3,1,0.3
				c0.4,0.1,1,0.1,1.7,0.1h2.1v4h-3.5c-1.2,0-2.2-0.1-3-0.2c-0.8-0.2-1.5-0.5-2-0.9c-0.5-0.4-0.9-1-1.2-1.8
				c-0.3-0.8-0.4-1.8-0.4-3.1v-17.7h-4.7v-4h4.7v-8.3h4.6v8.3H491.9z"/>
			<path class="st0" d="M531.8,303.7c-1.7-1.2-3.9-1.9-6.5-1.9c-1.1,0-2.1,0.1-3.2,0.3c-1,0.2-2,0.6-2.8,1.1c-0.8,0.5-1.4,1.2-1.9,2
				c-0.5,0.8-0.7,1.9-0.7,3.1c0,1.2,0.3,2.1,1,2.9c0.7,0.7,1.6,1.3,2.8,1.8c1.2,0.5,2.5,0.8,3.9,1.2c1.5,0.3,3,0.6,4.5,1
				c1.5,0.4,3,0.8,4.5,1.3c1.5,0.5,2.8,1.1,3.9,2c1.2,0.8,2.1,1.9,2.8,3.1c0.7,1.3,1,2.8,1,4.7c0,2-0.5,3.8-1.4,5.2
				c-0.9,1.4-2.1,2.6-3.5,3.5c-1.4,0.9-3,1.6-4.8,2c-1.8,0.4-3.5,0.6-5.3,0.6c-2.1,0-4.2-0.3-6.1-0.8c-1.9-0.5-3.6-1.3-5-2.4
				c-1.4-1.1-2.6-2.5-3.4-4.2c-0.8-1.7-1.3-3.7-1.3-6h4.8c0,1.6,0.3,3,0.9,4.2c0.6,1.2,1.4,2.1,2.5,2.9c1,0.8,2.2,1.3,3.6,1.7
				c1.4,0.4,2.8,0.5,4.2,0.5c1.1,0,2.3-0.1,3.5-0.3c1.2-0.2,2.2-0.6,3.1-1.1c0.9-0.5,1.7-1.2,2.3-2.1c0.6-0.9,0.9-2,0.9-3.4
				c0-1.3-0.3-2.4-1-3.2c-0.7-0.8-1.6-1.5-2.8-2c-1.2-0.5-2.5-0.9-3.9-1.3c-1.5-0.3-3-0.7-4.5-1c-1.5-0.3-3-0.7-4.5-1.2
				c-1.5-0.4-2.8-1-3.9-1.8c-1.2-0.7-2.1-1.7-2.8-2.8c-0.7-1.2-1-2.6-1-4.4c0-1.9,0.4-3.6,1.2-5c0.8-1.4,1.8-2.6,3.1-3.5
				c1.3-0.9,2.8-1.6,4.5-2c1.7-0.4,3.4-0.7,5.1-0.7c2,0,3.8,0.2,5.5,0.7c1.7,0.5,3.2,1.2,4.4,2.2c1.3,1,2.3,2.3,3,3.8
				c0.7,1.5,1.1,3.3,1.2,5.4h-4.8C534.5,307,533.5,305,531.8,303.7z"/>
			<path class="st0" d="M570.5,336.7c-0.8,0.5-1.9,0.7-3.3,0.7c-1.2,0-2.1-0.3-2.8-1c-0.7-0.7-1-1.7-1-3.2c-1.3,1.5-2.7,2.6-4.4,3.2
				c-1.7,0.7-3.5,1-5.4,1c-1.3,0-2.4-0.1-3.6-0.4c-1.1-0.3-2.1-0.7-2.9-1.3c-0.8-0.6-1.5-1.4-2-2.4c-0.5-1-0.7-2.2-0.7-3.6
				c0-1.6,0.3-2.9,0.8-3.9c0.5-1,1.2-1.8,2.1-2.4c0.9-0.6,1.9-1.1,3-1.4s2.3-0.6,3.5-0.8c1.3-0.3,2.4-0.4,3.6-0.6
				c1.1-0.1,2.1-0.3,3-0.5c0.9-0.2,1.5-0.6,2-1c0.5-0.4,0.8-1.1,0.8-2c0-1-0.2-1.8-0.6-2.4c-0.4-0.6-0.9-1.1-1.4-1.4
				c-0.6-0.3-1.3-0.5-2-0.6c-0.7-0.1-1.5-0.2-2.2-0.2c-1.9,0-3.5,0.4-4.8,1.1c-1.3,0.7-2,2.1-2.1,4.2h-4.6c0.1-1.7,0.4-3.2,1.1-4.3
				c0.6-1.2,1.5-2.1,2.6-2.9c1.1-0.7,2.3-1.3,3.7-1.6c1.4-0.3,2.9-0.5,4.4-0.5c1.3,0,2.5,0.1,3.7,0.3c1.2,0.2,2.4,0.5,3.4,1.1
				c1,0.6,1.8,1.3,2.4,2.3c0.6,1,0.9,2.3,0.9,3.9v14.2c0,1.1,0.1,1.9,0.2,2.4c0.1,0.5,0.5,0.7,1.3,0.7c0.4,0,0.9-0.1,1.4-0.2V336.7z
				 M563.1,322.5c-0.6,0.4-1.3,0.7-2.3,0.9s-1.9,0.4-2.9,0.5c-1,0.1-2,0.3-3.1,0.4c-1,0.2-2,0.4-2.8,0.8c-0.8,0.4-1.5,0.9-2,1.5
				c-0.5,0.7-0.8,1.6-0.8,2.7c0,0.7,0.2,1.4,0.5,1.9c0.3,0.5,0.7,0.9,1.2,1.3c0.5,0.3,1,0.6,1.7,0.7c0.6,0.1,1.3,0.2,2,0.2
				c1.5,0,2.8-0.2,3.9-0.6c1.1-0.4,1.9-0.9,2.6-1.5c0.7-0.6,1.2-1.3,1.5-2c0.3-0.7,0.5-1.4,0.5-2.1V322.5z"/>
			<path class="st0" d="M578.4,309.1v4.4h0.1c1.9-3.4,4.9-5,9-5c1.8,0,3.3,0.3,4.6,0.8c1.2,0.5,2.2,1.2,3,2.1c0.8,0.9,1.3,2,1.6,3.2
				c0.3,1.2,0.5,2.6,0.5,4.1v18.2h-4.6V318c0-1.7-0.5-3.1-1.5-4.1c-1-1-2.4-1.5-4.1-1.5c-1.4,0-2.6,0.2-3.6,0.6
				c-1,0.4-1.9,1-2.5,1.8c-0.7,0.8-1.2,1.7-1.5,2.8c-0.3,1.1-0.5,2.2-0.5,3.5v15.7h-4.6v-27.7H578.4z"/>
			<path class="st0" d="M623.4,336.8v-3.8h-0.1c-0.8,1.5-1.9,2.6-3.5,3.3c-1.6,0.7-3.4,1-5.3,1c-2.1,0-4-0.4-5.6-1.2
				c-1.6-0.8-2.9-1.8-4-3.2c-1.1-1.3-1.9-2.9-2.4-4.6c-0.5-1.8-0.8-3.6-0.8-5.6s0.3-3.8,0.8-5.6c0.5-1.8,1.3-3.3,2.4-4.6
				c1.1-1.3,2.4-2.3,4-3.1c1.6-0.8,3.4-1.2,5.6-1.2c0.7,0,1.5,0.1,2.3,0.2c0.8,0.1,1.6,0.4,2.5,0.7c0.8,0.3,1.6,0.8,2.3,1.3
				c0.7,0.6,1.4,1.2,1.9,2.1h0.1v-14.3h4.6v38.3H623.4z M607,327c0.3,1.2,0.9,2.3,1.6,3.3c0.7,1,1.6,1.7,2.7,2.3
				c1.1,0.6,2.4,0.9,3.8,0.9c1.5,0,2.8-0.3,3.9-0.9c1.1-0.6,1.9-1.4,2.6-2.4c0.7-1,1.2-2.1,1.5-3.4c0.3-1.3,0.5-2.5,0.5-3.8
				c0-1.4-0.2-2.7-0.5-3.9c-0.3-1.3-0.8-2.4-1.5-3.4c-0.7-1-1.6-1.7-2.7-2.3c-1.1-0.6-2.5-0.9-4-0.9c-1.5,0-2.8,0.3-3.9,0.9
				c-1.1,0.6-1.9,1.4-2.6,2.4c-0.6,1-1.1,2.1-1.4,3.4c-0.3,1.3-0.4,2.6-0.4,4C606.5,324.5,606.7,325.7,607,327z"/>
			<path class="st0" d="M638.7,298.5v14.3h0.1c0.8-1.5,1.9-2.7,3.5-3.4c1.6-0.7,3.4-1,5.3-1c2.1,0,4,0.4,5.6,1.2
				c1.6,0.8,2.9,1.9,4,3.2c1.1,1.3,1.9,2.9,2.4,4.6c0.5,1.8,0.8,3.6,0.8,5.6c0,2-0.3,3.8-0.8,5.6c-0.5,1.8-1.3,3.3-2.4,4.6
				c-1.1,1.3-2.4,2.3-4,3.1c-1.6,0.8-3.4,1.1-5.6,1.1c-0.7,0-1.4-0.1-2.3-0.2c-0.8-0.1-1.7-0.4-2.5-0.7c-0.8-0.3-1.6-0.8-2.3-1.3
				c-0.7-0.6-1.4-1.2-1.9-2.1h-0.1v3.7h-4.6v-38.3H638.7z M655.1,318.9c-0.3-1.2-0.9-2.3-1.6-3.3c-0.7-1-1.6-1.7-2.7-2.3
				c-1.1-0.6-2.4-0.9-3.8-0.9c-1.5,0-2.8,0.3-3.9,0.9c-1.1,0.6-2,1.4-2.6,2.4c-0.7,1-1.2,2.1-1.5,3.4c-0.3,1.3-0.5,2.5-0.5,3.8
				c0,1.4,0.2,2.7,0.5,3.9c0.3,1.3,0.8,2.4,1.5,3.4c0.7,1,1.6,1.7,2.7,2.3c1.1,0.6,2.5,0.9,4,0.9c1.6,0,2.9-0.3,3.9-0.9
				c1.1-0.6,1.9-1.4,2.5-2.4c0.6-1,1.1-2.1,1.4-3.4c0.3-1.3,0.4-2.6,0.4-4C655.6,321.4,655.4,320.2,655.1,318.9z"/>
			<path class="st0" d="M664.5,317.3c0.6-1.8,1.4-3.3,2.6-4.6c1.1-1.3,2.6-2.3,4.2-3.1c1.7-0.8,3.6-1.1,5.8-1.1
				c2.2,0,4.2,0.4,5.8,1.1c1.7,0.8,3.1,1.8,4.2,3.1c1.1,1.3,2,2.8,2.6,4.6c0.6,1.8,0.9,3.7,0.9,5.7c0,2-0.3,3.9-0.9,5.7
				c-0.6,1.8-1.4,3.3-2.6,4.6c-1.1,1.3-2.5,2.3-4.2,3.1c-1.7,0.7-3.6,1.1-5.8,1.1c-2.2,0-4.1-0.4-5.8-1.1c-1.7-0.7-3.1-1.8-4.2-3.1
				c-1.1-1.3-2-2.8-2.6-4.6c-0.6-1.8-0.9-3.6-0.9-5.7C663.7,320.9,664,319,664.5,317.3z M669.2,327.5c0.4,1.3,1.1,2.4,1.9,3.3
				c0.8,0.9,1.7,1.5,2.8,2c1.1,0.5,2.2,0.7,3.4,0.7c1.2,0,2.3-0.2,3.4-0.7c1.1-0.5,2-1.1,2.8-2c0.8-0.9,1.4-2,1.9-3.3
				c0.4-1.3,0.7-2.8,0.7-4.5c0-1.7-0.2-3.2-0.7-4.5c-0.4-1.3-1.1-2.4-1.9-3.3c-0.8-0.9-1.7-1.6-2.8-2c-1.1-0.5-2.2-0.7-3.4-0.7
				c-1.2,0-2.3,0.2-3.4,0.7c-1.1,0.5-2,1.1-2.8,2c-0.8,0.9-1.4,2-1.9,3.3c-0.4,1.3-0.7,2.8-0.7,4.5
				C668.5,324.7,668.7,326.1,669.2,327.5z"/>
			<path class="st0" d="M691.6,309.1h5.9l6.7,9.7l6.9-9.7h5.5l-9.6,12.8l10.7,15h-5.9l-7.7-11.5l-7.7,11.5h-5.5l10.4-14.6
				L691.6,309.1z"/>
		</g>
	</g>
	<g>
		<path class="st0" d="M720.9,299.6h-3.2v-1.1h7.7v1.1h-3.2v8.8h-1.3V299.6z M727.1,298.5h2l3.2,8l3.1-8h2v9.9h-1.3v-8.7h0l-3.5,8.7
			H732l-3.5-8.7h0v8.7h-1.3V298.5z"/>
	</g>
</g>
</svg>
