<?xml version="1.0" encoding="utf-8"?>
<!-- Generator: Adobe Illustrator 19.1.0, SVG Export Plug-In . SVG Version: 6.00 Build 0)  -->
<svg version="1.1" id="Layer_1" xmlns="http://www.w3.org/2000/svg" xmlns:xlink="http://www.w3.org/1999/xlink" x="0px" y="0px"
	 viewBox="0 0 792 612" style="enable-background:new 0 0 792 612;" xml:space="preserve">
<style type="text/css">
	.st0{fill:#00BBE6;}
	.st1{fill:#152333;}
</style>
<g>
	<g>
		<g>
			<path class="st0" d="M244.9,351.6c-0.4-8,5.9-14.5,13.7-14.5H374c-23.3-0.1-45.2-8.3-62.5-22.3h-58.6
				c-17.7,0-31.9,13.5-31.9,31.1c0,14.8,11.4,27.7,26.9,27.7c6.4,0,12.8-2.4,17.7-7.3c1.4-1.4,2.6-2.9,3.5-4.5
				c-2.3,1.4-4.8,2.2-7.5,2.5C253.3,365.3,245.4,359.8,244.9,351.6z"/>
			<path class="st0" d="M244.6,287c-3.8-4.3-9.3-6.7-15-6.7h-3.8c-6.4,0-11.5-5.6-10.6-12.2c0.8-5.6,6.2-9.4,11.9-9
				c2.5,0.2,4.6,0.8,6.6,2c-0.9-1.5-1.8-2.7-3-4c-4.3-4.3-9.9-6.5-15.6-6.5c-19,0-31,21.9-18.7,40c5.2,7.6,14,11.9,23.2,11.9l0,0
				h38.7L244.6,287z"/>
			<path class="st1" d="M416.7,337.1h54.2l-18.3-10.4c0.3-1.1,0.6-2.3,0.6-3.6c0-5.2-2.9-9.8-7.2-12.3l-34.4-19.3
				c11.5-14.6,12.1-35.5,0.6-50.7l-56.4-75.2c-21.8,21.8-30.3,51.8-25.6,80.1l-177.1-99.5c14.7,52.9,61.8,88,113.8,89.9
				c2.3,6,13.9,36.8,13.9,36.8c6.5,16.8,17.2,31.1,30.7,41.9h85.7c10.8,0,19.6,8.8,19.6,19.6L416.7,337.1L416.7,337.1z M439.2,318.5
				c2.5,0,4.5,2,4.5,4.5c0,2.5-2,4.5-4.5,4.5s-4.5-2-4.5-4.5C434.6,320.5,436.7,318.5,439.2,318.5z"/>
			<path class="st0" d="M411.7,291.5c0-12.3-9.9-22.2-22.2-22.2H289.2l0,0c-7.8,0-14.1-6.5-13.7-14.5c0.5-8.2,8.4-13.7,16.5-12.7
				c2.7,0.3,5.2,1.1,7.5,2.5c-1-1.6-2.2-3.1-3.5-4.5c-4.8-4.8-11.3-7.3-17.7-7.3c-15.5,0-26.9,12.8-26.9,27.7
				c0,17.7,14.3,31.1,31.9,31.1l0,0L411.7,291.5L411.7,291.5z"/>
		</g>
	</g>
	<g>
		<path d="M622.2,375.5H619v-1.1h7.7v1.1h-3.2v8.8h-1.3V375.5z M628.5,374.4h2l3.2,8l3.1-8h2v9.9h-1.3v-8.7h0l-3.5,8.7h-0.7
			l-3.5-8.7h0v8.7h-1.3V374.4z"/>
	</g>
	<g>
		<path d="M303.2,400.1c0.4,0.8,1,1.4,1.6,1.9c0.7,0.5,1.5,0.9,2.4,1.1c0.9,0.2,1.9,0.4,2.9,0.4c0.7,0,1.4-0.1,2.1-0.2
			c0.8-0.1,1.5-0.3,2.1-0.6c0.7-0.3,1.2-0.8,1.7-1.3c0.4-0.6,0.7-1.3,0.7-2.1c0-0.9-0.3-1.7-0.9-2.2c-0.6-0.6-1.4-1-2.3-1.4
			c-1-0.4-2-0.7-3.2-1c-1.2-0.3-2.4-0.6-3.7-1c-1.3-0.3-2.5-0.7-3.7-1.2c-1.2-0.5-2.3-1.1-3.2-1.8c-1-0.7-1.7-1.6-2.3-2.7
			c-0.6-1.1-0.9-2.4-0.9-4c0-1.8,0.4-3.3,1.1-4.6c0.7-1.3,1.7-2.4,2.9-3.2c1.2-0.9,2.6-1.5,4.1-1.9c1.5-0.4,3.1-0.6,4.6-0.6
			c1.8,0,3.5,0.2,5.1,0.6c1.6,0.4,3.1,1,4.4,1.9c1.3,0.9,2.3,2,3,3.4c0.7,1.4,1.1,3.1,1.1,5h-7.3c-0.1-1-0.3-1.9-0.6-2.5
			c-0.4-0.7-0.9-1.2-1.5-1.6c-0.6-0.4-1.3-0.7-2.1-0.8c-0.8-0.2-1.6-0.2-2.6-0.2c-0.6,0-1.2,0.1-1.8,0.2c-0.6,0.1-1.2,0.4-1.6,0.7
			c-0.5,0.3-0.9,0.7-1.2,1.2c-0.3,0.5-0.5,1.1-0.5,1.8c0,0.7,0.1,1.2,0.4,1.6s0.8,0.8,1.5,1.1c0.7,0.4,1.8,0.7,3.1,1
			c1.3,0.4,3,0.8,5.2,1.3c0.6,0.1,1.5,0.4,2.6,0.7c1.1,0.3,2.3,0.9,3.4,1.6c1.1,0.7,2.1,1.7,2.9,2.9s1.2,2.8,1.2,4.7
			c0,1.6-0.3,3-0.9,4.3c-0.6,1.3-1.5,2.5-2.7,3.5c-1.2,1-2.7,1.7-4.4,2.3c-1.8,0.5-3.8,0.8-6.1,0.8c-1.9,0-3.7-0.2-5.5-0.7
			c-1.8-0.5-3.3-1.2-4.7-2.2c-1.4-1-2.4-2.2-3.2-3.8c-0.8-1.5-1.2-3.3-1.1-5.4h7.3C302.6,398.3,302.8,399.3,303.2,400.1z"/>
		<path d="M349.6,408.5l-4.4-16.6h-0.1l-4.2,16.6h-7l-7.8-24.7h7.2l4.5,16.8h0.1l4.1-16.8h6.6l4.2,16.7h0.1l4.5-16.7h7l-7.8,24.7
			H349.6z"/>
		<path d="M367.8,380v-5.6h6.8v5.6H367.8z M374.6,383.8v24.7h-6.8v-24.7H374.6z"/>
		<path d="M377.9,388.3v-4.5h4.1v-1.9c0-2.2,0.7-4,2.1-5.4c1.4-1.4,3.4-2.1,6.2-2.1c0.6,0,1.2,0,1.8,0.1c0.6,0,1.2,0.1,1.8,0.1v5.1
			c-0.8-0.1-1.6-0.1-2.5-0.1c-0.9,0-1.6,0.2-2,0.6c-0.4,0.4-0.6,1.2-0.6,2.2v1.5h4.7v4.5h-4.7v20.1h-6.8v-20.1H377.9z"/>
		<path d="M411.5,383.8v4.5h-5v12.2c0,1.1,0.2,1.9,0.6,2.3c0.4,0.4,1.1,0.6,2.3,0.6c0.4,0,0.7,0,1.1,0c0.3,0,0.7-0.1,1-0.1v5.3
			c-0.6,0.1-1.2,0.2-1.9,0.2c-0.7,0-1.4,0-2.1,0c-1,0-2-0.1-3-0.2c-0.9-0.1-1.8-0.4-2.5-0.8c-0.7-0.4-1.3-1-1.7-1.8
			c-0.4-0.8-0.6-1.8-0.6-3v-14.6h-4.1v-4.5h4.1v-7.4h6.8v7.4H411.5z"/>
		<path d="M448.1,374.4c1.5,0,2.9,0.2,4.1,0.7c1.2,0.5,2.3,1.2,3.1,2c0.9,0.9,1.5,1.9,2,3c0.5,1.1,0.7,2.3,0.7,3.7
			c0,2-0.4,3.7-1.3,5.2c-0.8,1.5-2.2,2.6-4.1,3.3v0.1c0.9,0.3,1.7,0.6,2.3,1.2c0.6,0.5,1.1,1.1,1.5,1.9c0.4,0.7,0.7,1.5,0.8,2.4
			c0.2,0.9,0.3,1.7,0.4,2.6c0,0.5,0.1,1.2,0.1,1.9c0,0.7,0.1,1.5,0.2,2.2c0.1,0.8,0.2,1.5,0.4,2.2c0.2,0.7,0.4,1.3,0.8,1.7h-7.5
			c-0.4-1.1-0.7-2.4-0.8-3.9c-0.1-1.5-0.2-2.9-0.4-4.3c-0.3-1.8-0.8-3.1-1.6-3.9c-0.8-0.8-2.2-1.2-4.1-1.2h-7.5v13.3h-7.5v-34.1
			H448.1z M445.4,389.8c1.7,0,3-0.4,3.9-1.1c0.9-0.8,1.3-2,1.3-3.7c0-1.7-0.4-2.9-1.3-3.6c-0.9-0.7-2.1-1.1-3.9-1.1h-8.2v9.6H445.4z
			"/>
		<path d="M480.2,408.5v-3.4H480c-0.9,1.4-2,2.5-3.3,3.1c-1.4,0.6-2.8,1-4.2,1c-1.8,0-3.3-0.2-4.5-0.7c-1.2-0.5-2.1-1.2-2.7-2
			c-0.7-0.9-1.1-1.9-1.4-3.2c-0.3-1.3-0.4-2.6-0.4-4.2v-15.2h6.8v13.9c0,2,0.3,3.6,1,4.6c0.6,1,1.8,1.5,3.4,1.5c1.8,0,3.2-0.5,4-1.6
			c0.8-1.1,1.2-2.9,1.2-5.4v-12.9h6.8v24.7H480.2z"/>
		<path d="M498.7,383.8v3.4h0.1c0.9-1.4,2-2.5,3.3-3.1c1.4-0.7,2.8-1,4.2-1c1.8,0,3.3,0.2,4.5,0.7c1.2,0.5,2.1,1.2,2.7,2.1
			c0.7,0.9,1.1,1.9,1.4,3.2c0.3,1.3,0.4,2.6,0.4,4.2v15.2h-6.8v-13.9c0-2-0.3-3.6-1-4.6c-0.6-1-1.8-1.5-3.4-1.5
			c-1.8,0-3.2,0.5-4,1.6c-0.8,1.1-1.2,2.9-1.2,5.4v12.9h-6.8v-24.7H498.7z"/>
		<path d="M534.4,383.8v4.5h-5v12.2c0,1.1,0.2,1.9,0.6,2.3c0.4,0.4,1.1,0.6,2.3,0.6c0.4,0,0.7,0,1.1,0c0.3,0,0.7-0.1,1-0.1v5.3
			c-0.6,0.1-1.2,0.2-1.9,0.2c-0.7,0-1.4,0-2.1,0c-1,0-2-0.1-3-0.2c-0.9-0.1-1.8-0.4-2.5-0.8c-0.7-0.4-1.3-1-1.7-1.8
			c-0.4-0.8-0.6-1.8-0.6-3v-14.6h-4.1v-4.5h4.1v-7.4h6.8v7.4H534.4z"/>
		<path d="M538.5,380v-5.6h6.8v5.6H538.5z M545.3,383.8v24.7h-6.8v-24.7H545.3z"/>
		<path d="M557.5,383.8v3.3h0.1c0.9-1.3,2-2.3,3.2-3c1.3-0.7,2.7-1,4.3-1c1.6,0,3,0.3,4.3,0.9c1.3,0.6,2.3,1.7,2.9,3.2
			c0.7-1.1,1.7-2,3-2.9c1.3-0.8,2.7-1.2,4.5-1.2c1.3,0,2.5,0.2,3.6,0.5c1.1,0.3,2.1,0.8,2.9,1.5c0.8,0.7,1.4,1.6,1.9,2.7
			c0.4,1.1,0.7,2.5,0.7,4.1v16.5H582v-14c0-0.8,0-1.6-0.1-2.3c-0.1-0.7-0.2-1.4-0.5-1.9c-0.3-0.5-0.7-1-1.3-1.3
			c-0.6-0.3-1.3-0.5-2.3-0.5s-1.7,0.2-2.3,0.5c-0.6,0.4-1,0.8-1.4,1.4c-0.3,0.6-0.6,1.3-0.7,2c-0.1,0.7-0.2,1.5-0.2,2.3v13.7h-6.8
			v-13.8c0-0.7,0-1.5,0-2.2c0-0.7-0.2-1.4-0.4-2c-0.2-0.6-0.6-1.1-1.2-1.5c-0.6-0.4-1.4-0.5-2.5-0.5c-0.3,0-0.7,0.1-1.3,0.2
			c-0.5,0.1-1,0.4-1.5,0.8c-0.5,0.4-0.9,1-1.3,1.7c-0.4,0.7-0.5,1.7-0.5,2.9v14.3h-6.8v-24.7H557.5z"/>
		<path d="M601.7,402.6c1,1,2.5,1.5,4.4,1.5c1.4,0,2.5-0.3,3.5-1c1-0.7,1.6-1.4,1.8-2.2h6c-1,3-2.4,5.1-4.4,6.3
			c-2,1.3-4.4,1.9-7.2,1.9c-1.9,0-3.7-0.3-5.2-0.9c-1.6-0.6-2.9-1.5-4-2.6c-1.1-1.1-1.9-2.5-2.5-4.1c-0.6-1.6-0.9-3.3-0.9-5.3
			c0-1.8,0.3-3.6,0.9-5.2c0.6-1.6,1.5-3,2.6-4.1c1.1-1.2,2.4-2.1,4-2.7c1.5-0.7,3.3-1,5.1-1c2.1,0,3.9,0.4,5.5,1.2
			c1.6,0.8,2.8,1.9,3.8,3.3c1,1.4,1.7,2.9,2.2,4.7c0.4,1.8,0.6,3.6,0.5,5.5H600C600.1,400,600.7,401.6,601.7,402.6z M609.3,389.6
			c-0.8-0.9-2-1.3-3.7-1.3c-1.1,0-2,0.2-2.7,0.5c-0.7,0.4-1.3,0.8-1.7,1.4c-0.4,0.5-0.7,1.1-0.9,1.7c-0.2,0.6-0.3,1.1-0.3,1.6h11
			C610.7,391.8,610.1,390.5,609.3,389.6z"/>
		<path d="M301.7,443.1v22.1h-3v-22.1h-4.2v-2.5h4.2v-2.2c0-1.1,0.1-2,0.2-2.9c0.2-0.9,0.5-1.7,0.9-2.3c0.4-0.6,1.1-1.1,1.8-1.5
			c0.8-0.3,1.8-0.5,3-0.5c0.4,0,0.9,0,1.2,0c0.4,0,0.8,0.1,1.3,0.1v2.6c-0.4-0.1-0.8-0.1-1.1-0.2c-0.4,0-0.7-0.1-1-0.1
			c-0.8,0-1.5,0.1-1.9,0.4c-0.4,0.3-0.8,0.6-1,1c-0.2,0.4-0.3,0.9-0.4,1.5c0,0.6,0,1.2,0,1.9v2.1h4.9v2.5H301.7z"/>
		<path d="M324.2,440.9c1.4,0.7,2.7,1.6,3.7,2.8c1,1.2,1.7,2.6,2.2,4.1c0.5,1.6,0.8,3.3,0.8,5c0,1.8-0.3,3.5-0.8,5
			c-0.5,1.6-1.3,3-2.2,4.1c-1,1.2-2.2,2.1-3.7,2.8c-1.4,0.7-3.1,1-5,1c-1.9,0-3.5-0.3-5-1c-1.4-0.7-2.7-1.6-3.7-2.8
			c-1-1.2-1.7-2.6-2.2-4.1c-0.5-1.6-0.8-3.3-0.8-5c0-1.8,0.3-3.5,0.8-5c0.5-1.6,1.3-3,2.2-4.1c1-1.2,2.2-2.1,3.7-2.8
			c1.4-0.7,3.1-1,5-1C321.1,439.8,322.8,440.2,324.2,440.9z M315.5,443.3c-1.1,0.6-2,1.4-2.7,2.4c-0.7,1-1.3,2.1-1.6,3.4
			c-0.4,1.3-0.5,2.5-0.5,3.8c0,1.3,0.2,2.6,0.5,3.8c0.4,1.3,0.9,2.4,1.6,3.4c0.7,1,1.6,1.8,2.7,2.4c1.1,0.6,2.3,0.9,3.8,0.9
			c1.4,0,2.7-0.3,3.8-0.9c1.1-0.6,2-1.4,2.7-2.4c0.7-1,1.3-2.1,1.6-3.4c0.4-1.3,0.5-2.5,0.5-3.8c0-1.3-0.2-2.6-0.5-3.8
			c-0.4-1.3-0.9-2.4-1.6-3.4c-0.7-1-1.6-1.8-2.7-2.4c-1.1-0.6-2.3-0.9-3.8-0.9C317.8,442.4,316.5,442.7,315.5,443.3z"/>
		<path d="M338.2,440.5v5.8h0.1c0.8-2,1.9-3.5,3.6-4.6s3.5-1.6,5.8-1.5v3c-1.4-0.1-2.6,0.1-3.7,0.5c-1.1,0.4-2.1,1-2.9,1.8
			c-0.8,0.8-1.4,1.7-1.9,2.8c-0.4,1.1-0.7,2.3-0.7,3.6v13.1h-3v-24.6H338.2z"/>
		<path d="M368.8,431.1v34.1h-3.2v-34.1H368.8z"/>
		<path d="M390.1,431.1c1.4,0,2.8,0.1,4.1,0.4c1.3,0.3,2.5,0.7,3.5,1.4c1,0.7,1.8,1.5,2.4,2.6c0.6,1.1,0.9,2.4,0.9,4
			c0,0.9-0.1,1.8-0.4,2.6c-0.3,0.8-0.7,1.6-1.2,2.3c-0.5,0.7-1.1,1.3-1.9,1.7s-1.5,0.8-2.4,1v0.1c2.2,0.3,3.9,1.2,5.2,2.7
			c1.3,1.5,2,3.4,2,5.6c0,0.5,0,1.2-0.1,1.8c-0.1,0.7-0.3,1.4-0.6,2.1c-0.3,0.7-0.7,1.4-1.2,2.1c-0.5,0.7-1.3,1.3-2.2,1.8
			c-0.9,0.5-2,1-3.3,1.3c-1.3,0.3-2.9,0.5-4.7,0.5h-14.4v-34.1H390.1z M390.1,446c1.3,0,2.4-0.2,3.4-0.5c1-0.3,1.8-0.7,2.4-1.2
			c0.6-0.5,1.1-1.1,1.4-1.8c0.3-0.7,0.5-1.4,0.5-2.2c0-4.3-2.6-6.4-7.7-6.4h-11.2V446H390.1z M390.1,462.4c1.2,0,2.4-0.1,3.4-0.3
			c1.1-0.2,2-0.6,2.9-1.1c0.8-0.5,1.5-1.3,2-2.2c0.5-0.9,0.7-2,0.7-3.4c0-2.2-0.8-3.8-2.3-4.9c-1.5-1.1-3.8-1.6-6.7-1.6h-11.2v13.6
			H390.1z"/>
		<path d="M412.2,431.1l11.3,29.9l11.7-29.9h4.8v34.1h-3.2v-29.5h-0.1L425,465.2H422l-11.2-29.5h-0.1v29.5h-3.2v-34.1H412.2z"/>
		<path d="M472.6,431.1c1.4,0,2.8,0.1,4.1,0.4c1.3,0.3,2.5,0.7,3.5,1.4c1,0.7,1.8,1.5,2.4,2.6c0.6,1.1,0.9,2.4,0.9,4
			c0,0.9-0.1,1.8-0.4,2.6c-0.3,0.8-0.7,1.6-1.2,2.3c-0.5,0.7-1.1,1.3-1.9,1.7c-0.7,0.5-1.5,0.8-2.4,1v0.1c2.2,0.3,3.9,1.2,5.2,2.7
			c1.3,1.5,2,3.4,2,5.6c0,0.5,0,1.2-0.1,1.8c-0.1,0.7-0.3,1.4-0.6,2.1c-0.3,0.7-0.7,1.4-1.2,2.1c-0.5,0.7-1.3,1.3-2.2,1.8
			c-0.9,0.5-2,1-3.3,1.3c-1.3,0.3-2.9,0.5-4.7,0.5h-14.4v-34.1H472.6z M472.6,446c1.3,0,2.4-0.2,3.4-0.5c1-0.3,1.8-0.7,2.4-1.2
			c0.6-0.5,1.1-1.1,1.4-1.8c0.3-0.7,0.5-1.4,0.5-2.2c0-4.3-2.6-6.4-7.7-6.4h-11.2V446H472.6z M472.6,462.4c1.2,0,2.4-0.1,3.4-0.3
			c1.1-0.2,2-0.6,2.9-1.1c0.8-0.5,1.5-1.3,2-2.2c0.5-0.9,0.7-2,0.7-3.4c0-2.2-0.8-3.8-2.3-4.9c-1.5-1.1-3.8-1.6-6.7-1.6h-11.2v13.6
			H472.6z"/>
		<path d="M492.7,431.1v34.1h-3v-34.1H492.7z"/>
		<path d="M515.6,465.2v-4.4h-0.1c-0.8,1.7-1.9,2.9-3.5,3.8c-1.5,0.9-3.2,1.3-5,1.3c-1.6,0-2.9-0.2-4-0.6c-1.1-0.4-2-1-2.7-1.8
			c-0.7-0.8-1.2-1.8-1.5-2.9c-0.3-1.1-0.5-2.4-0.5-3.9v-16h3v16c0.1,2.2,0.6,3.9,1.6,5.1c1,1.1,2.6,1.7,5,1.7c1.3,0,2.4-0.3,3.3-0.8
			c0.9-0.6,1.7-1.3,2.3-2.2c0.6-0.9,1-2,1.3-3.2c0.3-1.2,0.4-2.4,0.4-3.7v-12.9h3v24.6H515.6z"/>
		<path d="M526.4,457c0.3,1.2,0.8,2.2,1.5,3.1c0.7,0.9,1.5,1.7,2.5,2.3c1,0.6,2.2,0.9,3.7,0.9c2.2,0,3.9-0.6,5.2-1.7
			c1.2-1.1,2.1-2.7,2.6-4.6h3c-0.6,2.8-1.8,5-3.5,6.5c-1.7,1.5-4.1,2.3-7.2,2.3c-1.9,0-3.6-0.3-5-1s-2.6-1.6-3.5-2.8
			c-0.9-1.2-1.6-2.6-2-4.2c-0.4-1.6-0.6-3.2-0.6-5c0-1.6,0.2-3.2,0.6-4.8c0.4-1.6,1.1-3,2-4.2c0.9-1.2,2-2.2,3.5-3
			c1.4-0.7,3.1-1.1,5-1.1c2,0,3.7,0.4,5.1,1.2c1.4,0.8,2.5,1.8,3.4,3.1c0.9,1.3,1.5,2.8,1.9,4.4c0.4,1.7,0.5,3.4,0.5,5.1H526
			C526,454.7,526.1,455.9,526.4,457z M541.3,447.8c-0.4-1.1-0.9-2-1.6-2.8c-0.7-0.8-1.5-1.5-2.4-2c-1-0.5-2-0.7-3.2-0.7
			c-1.2,0-2.3,0.2-3.3,0.7c-1,0.5-1.8,1.1-2.4,2c-0.7,0.8-1.2,1.8-1.6,2.8c-0.4,1.1-0.7,2.2-0.8,3.3h15.9
			C541.9,450,541.7,448.9,541.3,447.8z"/>
		<path d="M552,440.5v4.2h0.1c0.8-1.5,1.8-2.7,3.1-3.6c1.3-0.9,2.9-1.3,4.9-1.3c1.6,0,3.1,0.4,4.4,1.2c1.3,0.8,2.2,2,2.6,3.6
			c0.7-1.6,1.8-2.8,3.2-3.6c1.4-0.8,3-1.2,4.6-1.2c5.4,0,8.2,2.9,8.2,8.6v16.7h-3v-16.6c0-2-0.4-3.6-1.3-4.7
			c-0.9-1.1-2.4-1.6-4.5-1.6c-1.3,0-2.4,0.2-3.2,0.7c-0.9,0.5-1.5,1.2-2.1,2c-0.5,0.8-0.9,1.8-1.1,2.8c-0.2,1.1-0.3,2.2-0.3,3.3
			v13.9h-3v-16.7c0-0.8-0.1-1.6-0.3-2.4c-0.2-0.7-0.5-1.4-0.9-2c-0.4-0.6-0.9-1-1.6-1.3c-0.7-0.3-1.5-0.5-2.4-0.5
			c-1.3,0-2.4,0.2-3.3,0.7c-0.9,0.5-1.7,1.1-2.3,1.9c-0.6,0.8-1,1.8-1.3,2.9c-0.3,1.1-0.4,2.3-0.4,3.6v13.7h-3v-24.6H552z"/>
		<path d="M592.1,431.1v4.8h-3v-4.8H592.1z M592.1,440.5v24.6h-3v-24.6H592.1z"/>
		<path d="M596,440.5h3.8l7,9.4l6.9-9.4h3.8l-8.9,11.8l9.6,12.8h-3.8l-7.7-10.4l-7.6,10.4h-3.7l9.5-12.8L596,440.5z"/>
		<path d="M626.5,432c0.6,0.3,1.2,0.6,1.6,1.1c0.5,0.5,0.8,1,1.1,1.6c0.3,0.6,0.4,1.3,0.4,2c0,0.7-0.1,1.4-0.4,2
			c-0.3,0.6-0.6,1.2-1.1,1.6s-1,0.8-1.6,1.1s-1.3,0.4-2,0.4s-1.4-0.1-2-0.4c-0.6-0.3-1.2-0.6-1.6-1.1s-0.8-1-1.1-1.6
			c-0.3-0.6-0.4-1.3-0.4-2c0-0.7,0.1-1.4,0.4-2c0.3-0.6,0.6-1.2,1.1-1.6c0.5-0.5,1-0.8,1.6-1.1c0.6-0.3,1.3-0.4,2-0.4
			S625.9,431.7,626.5,432z M622.7,432.7c-0.5,0.2-1,0.5-1.4,0.9c-0.4,0.4-0.7,0.9-0.9,1.4c-0.2,0.5-0.3,1.1-0.3,1.7
			c0,0.6,0.1,1.2,0.3,1.7c0.2,0.5,0.5,1,0.9,1.4c0.4,0.4,0.9,0.7,1.4,0.9c0.5,0.2,1.1,0.3,1.7,0.3c0.6,0,1.2-0.1,1.7-0.3
			c0.5-0.2,1-0.5,1.4-0.9c0.4-0.4,0.7-0.9,0.9-1.4c0.2-0.5,0.3-1.1,0.3-1.7c0-0.6-0.1-1.2-0.3-1.7c-0.2-0.5-0.5-1-0.9-1.4
			c-0.4-0.4-0.9-0.7-1.4-0.9c-0.5-0.2-1.1-0.3-1.7-0.3C623.8,432.3,623.3,432.4,622.7,432.7z M622.6,439.7v-6h2.3
			c0.7,0,1.2,0.1,1.5,0.4c0.3,0.3,0.5,0.7,0.5,1.2c0,0.3,0,0.5-0.1,0.7s-0.2,0.4-0.3,0.5c-0.1,0.1-0.3,0.2-0.5,0.3
			c-0.2,0.1-0.4,0.1-0.6,0.2l1.8,2.7h-0.9l-1.7-2.7h-1.2v2.7H622.6z M625,436.4c0.2,0,0.4-0.1,0.6-0.1c0.2-0.1,0.3-0.2,0.4-0.3
			c0.1-0.1,0.2-0.3,0.2-0.6c0-0.2,0-0.4-0.1-0.5c-0.1-0.1-0.2-0.2-0.3-0.3c-0.1-0.1-0.3-0.1-0.5-0.2c-0.2,0-0.3,0-0.5,0h-1.3v2.1h1
			C624.5,436.5,624.7,436.4,625,436.4z"/>
	</g>
</g>
</svg>
