<?xml version="1.0" encoding="utf-8"?>
<!-- Generator: Adobe Illustrator 19.1.0, SVG Export Plug-In . SVG Version: 6.00 Build 0)  -->
<svg version="1.1" id="Layer_1" xmlns="http://www.w3.org/2000/svg" xmlns:xlink="http://www.w3.org/1999/xlink" x="0px" y="0px"
	 viewBox="0 0 792 612" style="enable-background:new 0 0 792 612;" xml:space="preserve">
<style type="text/css">
	.st0{fill:#FFFFFF;}
</style>
<g>
	<g>
		<g>
			<g>
				<path class="st0" d="M480.9,293.7c8.6-10.7,9.1-26.1,0.6-37.4l-41.3-55.1c-16.1,16.1-22.3,38.2-18.8,59.1L480.9,293.7z"/>
				<path class="st0" d="M378.2,235.8L357,179.6c-3.8-10-13.3-16.6-24-16.6l22.7,60.2L378.2,235.8z"/>
			</g>
			<path class="st0" d="M509.5,326.8c0.2-0.9,0.4-1.8,0.4-2.7c0-4-2.2-7.5-5.5-9.3L268.6,182.1c0,11.8,6.4,22.6,16.6,28.4l83.3,46.9
				l10.8,28.6c-28.6-17.9-66.8-14.4-91.7,10.5l0,0l104,56c11.9,6.4,26.5,4.2,36-5.3l12.6-12.6h83.2v0L509.5,326.8z M499.3,327.5
				c-1.9,0-3.4-1.5-3.4-3.4s1.5-3.4,3.4-3.4c1.9,0,3.4,1.5,3.4,3.4S501.2,327.5,499.3,327.5z"/>
		</g>
		<g>
			<path class="st0" d="M280.4,409.8c-1.7-1.3-3.9-1.9-6.6-1.9c-1.1,0-2.2,0.1-3.2,0.3c-1.1,0.2-2,0.6-2.8,1.1
				c-0.8,0.5-1.5,1.2-2,2.1c-0.5,0.9-0.7,1.9-0.7,3.2c0,1.2,0.4,2.2,1.1,2.9c0.7,0.7,1.7,1.4,2.8,1.8c1.2,0.5,2.5,0.9,4,1.2
				c1.5,0.3,3,0.6,4.6,1c1.5,0.4,3.1,0.8,4.6,1.3c1.5,0.5,2.8,1.2,4,2c1.2,0.8,2.1,1.9,2.8,3.2c0.7,1.3,1.1,2.9,1.1,4.8
				c0,2.1-0.5,3.9-1.4,5.3c-0.9,1.5-2.1,2.7-3.6,3.6c-1.5,0.9-3.1,1.6-4.9,2c-1.8,0.4-3.6,0.6-5.4,0.6c-2.2,0-4.3-0.3-6.2-0.8
				c-2-0.5-3.7-1.4-5.1-2.5c-1.5-1.1-2.6-2.5-3.5-4.3c-0.9-1.7-1.3-3.8-1.3-6.2h4.9c0,1.6,0.3,3.1,1,4.2c0.6,1.2,1.5,2.2,2.5,2.9
				c1,0.8,2.3,1.3,3.6,1.7c1.4,0.4,2.8,0.5,4.3,0.5c1.2,0,2.3-0.1,3.5-0.3c1.2-0.2,2.3-0.6,3.2-1.1c0.9-0.5,1.7-1.2,2.3-2.2
				s0.9-2.1,0.9-3.5c0-1.3-0.4-2.4-1.1-3.3c-0.7-0.8-1.7-1.5-2.8-2.1c-1.2-0.5-2.5-1-4-1.3c-1.5-0.3-3-0.7-4.6-1
				c-1.5-0.3-3.1-0.7-4.6-1.2c-1.5-0.5-2.8-1.1-4-1.8c-1.2-0.7-2.1-1.7-2.8-2.9c-0.7-1.2-1.1-2.7-1.1-4.5c0-2,0.4-3.7,1.2-5.1
				c0.8-1.4,1.9-2.6,3.2-3.6s2.8-1.6,4.5-2.1c1.7-0.5,3.4-0.7,5.2-0.7c2,0,3.9,0.2,5.6,0.7c1.7,0.5,3.2,1.2,4.5,2.2
				c1.3,1,2.3,2.3,3.1,3.9c0.7,1.6,1.2,3.4,1.2,5.6h-4.9C283.2,413.1,282.1,411.1,280.4,409.8z"/>
			<path class="st0" d="M318.3,443.5l-5.7-22.5h-0.1l-5.7,22.5h-5l-9.1-28.3h5.1l6.4,23.1h0.1l5.7-23.1h5.1l5.9,23.1h0.1l6.3-23.1
				h4.8l-9,28.3H318.3z"/>
			<path class="st0" d="M336.6,410.2v-5.7h4.6v5.7H336.6z M341.3,415.3v28.3h-4.6v-28.3H341.3z"/>
			<path class="st0" d="M345.4,419.4v-4.1h4.8v-4.2c0-2.3,0.7-4,2-5.2c1.3-1.2,3.3-1.8,5.8-1.8c0.4,0,0.9,0,1.5,0.1
				c0.6,0.1,1.1,0.2,1.5,0.3v4.1c-0.4-0.1-0.8-0.2-1.3-0.3c-0.5-0.1-0.9-0.1-1.3-0.1c-1.1,0-2,0.2-2.6,0.7c-0.6,0.4-0.9,1.3-0.9,2.5
				v3.9h5.5v4.1h-5.5v24.2h-4.6v-24.2H345.4z"/>
			<path class="st0" d="M375.4,415.3v4.1h-5.6v17.6c0,0.5,0,1,0.1,1.3s0.3,0.6,0.5,0.8c0.3,0.2,0.6,0.3,1.1,0.4
				c0.5,0.1,1.1,0.1,1.8,0.1h2.1v4.1h-3.6c-1.2,0-2.2-0.1-3.1-0.2c-0.9-0.2-1.5-0.5-2.1-0.9c-0.5-0.4-0.9-1.1-1.2-1.9
				s-0.4-1.9-0.4-3.2v-18h-4.8v-4.1h4.8v-8.5h4.6v8.5H375.4z"/>
			<path class="st0" d="M425.6,441.4c-4.9,5.4-10.7,7.6-17.9,7.6c-6.1,0-12.8-2.1-17.5-6.2c-4.7-4.1-7.7-10.8-7.7-17.2
				c0-13.3,11.4-24.3,24.7-24.3c11.2,0,21.1,7.7,21.1,19.4c0,4-1,7.9-3.3,11.2c-2.4,3.3-6.4,6-10.5,6c-2.8,0-4.2-1.3-4.5-4
				c-1.9,2.4-4.2,3.8-7.3,3.8c-5.7,0-8.9-4.9-8.9-10.2c0-7.2,6.3-15.2,13.9-15.2c2.7,0,5.2,1.5,6.3,4l0.7-2h4.6l-4.7,15.3
				c-0.3,0.8-0.6,1.9-0.6,2.8c0,1.3,0.6,1.9,1.9,1.9c2.1,0,4.7-2,5.9-3.6c2.2-2.7,3.1-6,3.1-9.4c0-10.2-7.9-16.2-17.6-16.2
				c-5.7,0-10.3,1.8-14.4,5.8c-3.9,3.8-6.1,8.8-6.1,14.4c0,11.9,9.3,20,20.9,20c6.6,0,12-2,16.7-6.8L425.6,441.4z M410.5,426.9
				c0.6-1.7,1.3-4.1,1.3-6c0-2.6-1.5-4.4-4.1-4.4c-5.3,0-8.8,6.5-8.8,11.1c0,2.9,1.5,5.6,4.7,5.6C407.2,433.2,409.4,430,410.5,426.9
				z"/>
			<path class="st0" d="M445,404.5v39.1h-8.6v-39.1H445z"/>
			<path class="st0" d="M471.1,404.5c1.9,0,3.6,0.2,5.1,0.5c1.5,0.3,2.8,0.9,3.9,1.6c1.1,0.7,1.9,1.7,2.5,3c0.6,1.2,0.9,2.8,0.9,4.6
				c0,2-0.4,3.6-1.3,4.9c-0.9,1.3-2.2,2.4-4,3.2c2.4,0.7,4.2,1.9,5.4,3.6c1.2,1.7,1.8,3.8,1.8,6.3c0,2-0.4,3.7-1.1,5.1
				c-0.8,1.4-1.8,2.6-3.1,3.5c-1.3,0.9-2.8,1.6-4.4,2c-1.7,0.4-3.4,0.7-5.1,0.7h-18.9v-39.1H471.1z M470,420.3
				c1.5,0,2.8-0.4,3.8-1.1c1-0.7,1.5-1.9,1.5-3.6c0-0.9-0.2-1.7-0.5-2.2s-0.8-1-1.3-1.4s-1.2-0.6-1.9-0.7c-0.7-0.1-1.5-0.2-2.2-0.2
				h-8v9.1H470z M470.5,436.9c0.8,0,1.6-0.1,2.4-0.2c0.8-0.2,1.4-0.4,2-0.8s1-0.9,1.4-1.6c0.3-0.7,0.5-1.5,0.5-2.5
				c0-2-0.6-3.4-1.7-4.3c-1.1-0.9-2.6-1.3-4.5-1.3h-9.4v10.7H470.5z"/>
			<path class="st0" d="M503.4,404.5l9.1,26.9h0.1l8.6-26.9h12.1v39.1h-8v-27.7h-0.1l-9.6,27.7H509l-9.6-27.4h-0.1v27.4h-8v-39.1
				H503.4z"/>
		</g>
	</g>
	<g>
		<path class="st0" d="M546.6,405.6h-3.2v-1.1h7.7v1.1h-3.2v8.8h-1.3V405.6z M552.8,404.5h2l3.2,8l3.1-8h2v9.9h-1.3v-8.7h0l-3.5,8.7
			h-0.7l-3.5-8.7h0v8.7h-1.3V404.5z"/>
	</g>
</g>
</svg>
