<?xml version="1.0" encoding="utf-8"?>
<!-- Generator: Adobe Illustrator 19.1.0, SVG Export Plug-In . SVG Version: 6.00 Build 0)  -->
<svg version="1.1" id="Layer_1" xmlns="http://www.w3.org/2000/svg" xmlns:xlink="http://www.w3.org/1999/xlink" x="0px" y="0px"
	 viewBox="0 0 792 612" style="enable-background:new 0 0 792 612;" xml:space="preserve">
<style type="text/css">
	.st0{fill:#00BBE6;}
	.st1{fill:#152333;}
</style>
<g>
	<g>
		<g>
			<path class="st1" d="M510.4,317.3c0.3-0.9,0.4-1.9,0.4-3c0-4.3-2.3-8-5.9-9.9L477,288.7c9.4-11.9,9.8-28.9,0.5-41.3l-45.9-61.1
				c-17.7,17.7-24.7,42.2-20.9,65.2l-144.1-81.1c11.9,43,50.3,71.6,92.6,73.2c0,0,6,16.1,12.7,34.1l20.7-11.9l51.9,30l0,30l80.7,0v0
				L510.4,317.3z M499.4,318c-2,0-3.7-1.7-3.7-3.7c0-2,1.7-3.7,3.7-3.7s3.7,1.7,3.7,3.7C503.1,316.4,501.5,318,499.4,318z"/>
			<polygon class="st0" points="392.7,325.7 340.8,295.7 340.8,355.7 392.7,385.7 444.7,355.7 444.7,295.7 			"/>
		</g>
	</g>
	<g>
		<path class="st1" d="M110.4,430.7V465h-7.5v-34.3H110.4z"/>
		<path class="st1" d="M133.1,430.7c1.6,0,3.1,0.1,4.5,0.4c1.3,0.3,2.5,0.8,3.5,1.4c1,0.7,1.7,1.5,2.2,2.6c0.5,1.1,0.8,2.4,0.8,4
			c0,1.7-0.4,3.2-1.2,4.3c-0.8,1.2-1.9,2.1-3.5,2.8c2.1,0.6,3.7,1.7,4.7,3.2c1,1.5,1.6,3.4,1.6,5.5c0,1.7-0.3,3.2-1,4.5
			c-0.7,1.3-1.6,2.3-2.7,3.1c-1.1,0.8-2.4,1.4-3.9,1.8c-1.5,0.4-3,0.6-4.5,0.6H117v-34.3H133.1z M132.1,444.6c1.3,0,2.4-0.3,3.3-1
			c0.9-0.6,1.3-1.7,1.3-3.1c0-0.8-0.1-1.5-0.4-2c-0.3-0.5-0.7-0.9-1.2-1.2c-0.5-0.3-1-0.5-1.7-0.6c-0.6-0.1-1.3-0.2-1.9-0.2h-7.1v8
			H132.1z M132.6,459.1c0.7,0,1.4-0.1,2.1-0.2c0.7-0.1,1.3-0.4,1.8-0.7c0.5-0.3,0.9-0.8,1.2-1.4c0.3-0.6,0.5-1.3,0.5-2.2
			c0-1.8-0.5-3-1.5-3.8c-1-0.8-2.3-1.1-3.9-1.1h-8.2v9.4H132.6z"/>
		<path class="st1" d="M161.4,430.7l8,23.6h0.1l7.6-23.6h10.6V465h-7.1v-24.3h-0.1l-8.4,24.3h-5.8l-8.4-24h-0.1v24h-7.1v-34.3H161.4
			z"/>
		<path class="st1" d="M225.2,435.4c-1.5-1.1-3.5-1.7-5.8-1.7c-1,0-1.9,0.1-2.8,0.3c-0.9,0.2-1.8,0.5-2.5,1c-0.7,0.4-1.3,1-1.7,1.8
			c-0.4,0.8-0.6,1.7-0.6,2.8c0,1.1,0.3,1.9,0.9,2.6c0.6,0.7,1.5,1.2,2.5,1.6c1,0.4,2.2,0.8,3.5,1s2.6,0.6,4,0.9
			c1.4,0.3,2.7,0.7,4,1.1c1.3,0.4,2.5,1,3.5,1.8c1,0.7,1.9,1.7,2.5,2.8s0.9,2.5,0.9,4.2c0,1.8-0.4,3.4-1.2,4.7
			c-0.8,1.3-1.9,2.4-3.1,3.2c-1.3,0.8-2.7,1.4-4.3,1.8c-1.6,0.4-3.2,0.6-4.7,0.6c-1.9,0-3.7-0.2-5.4-0.7c-1.7-0.5-3.2-1.2-4.5-2.2
			c-1.3-1-2.3-2.2-3.1-3.7c-0.8-1.5-1.1-3.3-1.1-5.4h4.3c0,1.4,0.3,2.7,0.8,3.7s1.3,1.9,2.2,2.6c0.9,0.7,2,1.2,3.2,1.5
			c1.2,0.3,2.5,0.5,3.7,0.5c1,0,2.1-0.1,3.1-0.3c1-0.2,2-0.5,2.8-1c0.8-0.5,1.5-1.1,2-1.9c0.5-0.8,0.8-1.8,0.8-3.1
			c0-1.2-0.3-2.1-0.9-2.9s-1.5-1.3-2.5-1.8c-1-0.5-2.2-0.8-3.5-1.1s-2.6-0.6-4-0.9c-1.4-0.3-2.7-0.7-4-1.1c-1.3-0.4-2.5-0.9-3.5-1.6
			s-1.9-1.5-2.5-2.5s-0.9-2.3-0.9-3.9c0-1.7,0.4-3.2,1.1-4.5c0.7-1.3,1.6-2.3,2.8-3.1c1.2-0.8,2.5-1.4,4-1.8c1.5-0.4,3-0.6,4.6-0.6
			c1.8,0,3.4,0.2,4.9,0.6c1.5,0.4,2.8,1.1,4,2c1.1,0.9,2,2,2.7,3.4c0.7,1.4,1,3,1.1,4.9h-4.3C227.7,438.3,226.8,436.5,225.2,435.4z"
			/>
		<path class="st1" d="M258.8,465l-5-19.7h-0.1l-5,19.7h-4.4l-8-24.8h4.5l5.6,20.3h0.1l5-20.3h4.5l5.2,20.3h0.1l5.6-20.3h4.2
			l-7.9,24.8H258.8z"/>
		<path class="st1" d="M275.1,435.7v-5h4.1v5H275.1z M279.2,440.1V465h-4.1v-24.8H279.2z"/>
		<path class="st1" d="M283.1,443.7v-3.6h4.2v-3.7c0-2,0.6-3.5,1.8-4.6s2.9-1.6,5.1-1.6c0.4,0,0.8,0,1.3,0.1s0.9,0.2,1.3,0.3v3.6
			c-0.4-0.1-0.7-0.2-1.2-0.3c-0.4,0-0.8-0.1-1.2-0.1c-1,0-1.8,0.2-2.3,0.6c-0.5,0.4-0.8,1.1-0.8,2.2v3.5h4.8v3.6h-4.8V465h-4.1
			v-21.2H283.1z"/>
		<path class="st1" d="M310.4,440.1v3.6h-4.9v15.4c0,0.5,0,0.9,0.1,1.2c0.1,0.3,0.2,0.5,0.5,0.7c0.2,0.2,0.5,0.3,0.9,0.3
			c0.4,0,0.9,0.1,1.6,0.1h1.9v3.6h-3.1c-1.1,0-2-0.1-2.7-0.2c-0.8-0.1-1.4-0.4-1.8-0.8c-0.5-0.4-0.8-0.9-1-1.6
			c-0.2-0.7-0.3-1.6-0.3-2.8v-15.8h-4.2v-3.6h4.2v-7.4h4.1v7.4H310.4z"/>
		<path class="st1" d="M343.9,430.7c3.5,0,6.1,0.9,7.8,2.7c1.8,1.8,2.7,4.3,2.7,7.5s-0.9,5.7-2.7,7.5c-1.8,1.8-4.4,2.7-7.8,2.6
			h-10.5v14h-4.6v-34.3H343.9z M342.4,447.1c2.6,0,4.5-0.5,5.7-1.6c1.2-1.1,1.8-2.7,1.8-4.7s-0.6-3.6-1.8-4.7
			c-1.2-1.1-3.1-1.6-5.7-1.6h-8.9v12.6H342.4z"/>
		<path class="st1" d="M381.3,464.9c-0.7,0.4-1.7,0.6-2.9,0.6c-1.1,0-1.9-0.3-2.5-0.9s-0.9-1.6-0.9-2.9c-1.1,1.3-2.4,2.3-3.9,2.9
			c-1.5,0.6-3.1,0.9-4.8,0.9c-1.1,0-2.2-0.1-3.2-0.4c-1-0.3-1.9-0.7-2.6-1.2c-0.7-0.5-1.3-1.3-1.8-2.1c-0.4-0.9-0.6-1.9-0.6-3.2
			c0-1.4,0.2-2.6,0.7-3.5c0.5-0.9,1.1-1.6,1.9-2.2c0.8-0.6,1.7-1,2.7-1.3s2-0.5,3.1-0.7c1.1-0.2,2.2-0.4,3.2-0.5
			c1-0.1,1.9-0.3,2.7-0.5c0.8-0.2,1.4-0.5,1.8-0.9c0.4-0.4,0.7-1,0.7-1.8c0-0.9-0.2-1.6-0.5-2.2c-0.3-0.5-0.8-1-1.3-1.2
			c-0.5-0.3-1.1-0.5-1.8-0.6c-0.7-0.1-1.3-0.1-1.9-0.1c-1.7,0-3.2,0.3-4.3,1c-1.2,0.7-1.8,1.9-1.9,3.7h-4.1c0.1-1.5,0.4-2.8,1-3.9
			c0.6-1.1,1.3-1.9,2.3-2.6c1-0.7,2.1-1.1,3.3-1.4c1.2-0.3,2.6-0.4,4-0.4c1.1,0,2.2,0.1,3.3,0.2c1.1,0.2,2.1,0.5,3,1
			c0.9,0.5,1.6,1.2,2.2,2.1c0.5,0.9,0.8,2.1,0.8,3.5v12.7c0,1,0.1,1.7,0.2,2.1c0.1,0.4,0.5,0.7,1.1,0.7c0.4,0,0.8-0.1,1.2-0.2V464.9
			z M374.7,452.1c-0.5,0.4-1.2,0.7-2,0.8c-0.8,0.2-1.7,0.3-2.6,0.4s-1.8,0.2-2.8,0.4c-0.9,0.1-1.8,0.4-2.5,0.7
			c-0.7,0.3-1.3,0.8-1.8,1.4c-0.5,0.6-0.7,1.4-0.7,2.4c0,0.7,0.1,1.2,0.4,1.7c0.3,0.5,0.6,0.8,1.1,1.1c0.4,0.3,0.9,0.5,1.5,0.6
			c0.6,0.1,1.2,0.2,1.8,0.2c1.3,0,2.5-0.2,3.5-0.5s1.7-0.8,2.4-1.4c0.6-0.6,1.1-1.2,1.3-1.8s0.4-1.3,0.4-1.8V452.1z"/>
		<path class="st1" d="M399.9,444.5c-1-0.9-2.4-1.3-4.1-1.3c-1.5,0-2.7,0.3-3.7,0.8c-1,0.5-1.8,1.3-2.4,2.2c-0.6,0.9-1,1.9-1.3,3.1
			s-0.4,2.4-0.4,3.6c0,1.2,0.1,2.3,0.4,3.4c0.3,1.1,0.7,2.1,1.3,2.9c0.6,0.8,1.3,1.5,2.3,2c0.9,0.5,2,0.8,3.3,0.8
			c2,0,3.6-0.5,4.7-1.6c1.1-1.1,1.8-2.5,2.1-4.5h4.2c-0.4,3.1-1.6,5.4-3.4,7.1c-1.8,1.7-4.3,2.5-7.5,2.5c-1.9,0-3.6-0.3-5-0.9
			c-1.5-0.6-2.7-1.5-3.6-2.6c-1-1.1-1.7-2.5-2.2-4c-0.5-1.6-0.7-3.3-0.7-5.1s0.2-3.6,0.7-5.2c0.5-1.6,1.2-3,2.2-4.2
			c1-1.2,2.2-2.1,3.7-2.8c1.5-0.7,3.2-1,5.1-1c1.4,0,2.7,0.2,4,0.5c1.2,0.3,2.3,0.9,3.3,1.6c0.9,0.7,1.7,1.6,2.3,2.7
			c0.6,1.1,1,2.3,1.2,3.8H402C401.6,446.5,401,445.3,399.9,444.5z"/>
		<path class="st1" d="M415.2,430.7V451l11.3-10.8h5.5l-9.8,9l10.6,15.8h-5.2l-8.5-13l-3.8,3.6v9.4h-4.1v-34.3H415.2z"/>
		<path class="st1" d="M457.8,464.9c-0.7,0.4-1.7,0.6-2.9,0.6c-1.1,0-1.9-0.3-2.5-0.9s-0.9-1.6-0.9-2.9c-1.1,1.3-2.4,2.3-3.9,2.9
			c-1.5,0.6-3.1,0.9-4.8,0.9c-1.1,0-2.2-0.1-3.2-0.4c-1-0.3-1.9-0.7-2.6-1.2c-0.7-0.5-1.3-1.3-1.8-2.1c-0.4-0.9-0.6-1.9-0.6-3.2
			c0-1.4,0.2-2.6,0.7-3.5c0.5-0.9,1.1-1.6,1.9-2.2c0.8-0.6,1.7-1,2.7-1.3s2-0.5,3.1-0.7c1.1-0.2,2.2-0.4,3.2-0.5
			c1-0.1,1.9-0.3,2.7-0.5c0.8-0.2,1.4-0.5,1.8-0.9c0.4-0.4,0.7-1,0.7-1.8c0-0.9-0.2-1.6-0.5-2.2c-0.3-0.5-0.8-1-1.3-1.2
			c-0.5-0.3-1.1-0.5-1.8-0.6c-0.7-0.1-1.3-0.1-1.9-0.1c-1.7,0-3.2,0.3-4.3,1c-1.2,0.7-1.8,1.9-1.9,3.7h-4.1c0.1-1.5,0.4-2.8,1-3.9
			c0.6-1.1,1.3-1.9,2.3-2.6c1-0.7,2.1-1.1,3.3-1.4c1.2-0.3,2.6-0.4,4-0.4c1.1,0,2.2,0.1,3.3,0.2c1.1,0.2,2.1,0.5,3,1
			c0.9,0.5,1.6,1.2,2.2,2.1c0.5,0.9,0.8,2.1,0.8,3.5v12.7c0,1,0.1,1.7,0.2,2.1c0.1,0.4,0.5,0.7,1.1,0.7c0.4,0,0.8-0.1,1.2-0.2V464.9
			z M451.2,452.1c-0.5,0.4-1.2,0.7-2,0.8c-0.8,0.2-1.7,0.3-2.6,0.4s-1.8,0.2-2.8,0.4c-0.9,0.1-1.8,0.4-2.5,0.7
			c-0.7,0.3-1.3,0.8-1.8,1.4c-0.5,0.6-0.7,1.4-0.7,2.4c0,0.7,0.1,1.2,0.4,1.7c0.3,0.5,0.6,0.8,1.1,1.1c0.4,0.3,0.9,0.5,1.5,0.6
			c0.6,0.1,1.2,0.2,1.8,0.2c1.3,0,2.5-0.2,3.5-0.5s1.7-0.8,2.4-1.4c0.6-0.6,1.1-1.2,1.3-1.8s0.4-1.3,0.4-1.8V452.1z"/>
		<path class="st1" d="M480.2,472c-1.9,2-4.8,3-8.7,3c-1.2,0-2.3-0.1-3.5-0.4c-1.2-0.3-2.3-0.7-3.3-1.2c-1-0.6-1.8-1.3-2.4-2.3
			c-0.6-0.9-1-2.1-1.1-3.4h4.1c0,0.7,0.3,1.4,0.7,1.9c0.4,0.5,1,0.9,1.6,1.2c0.6,0.3,1.3,0.6,2,0.7c0.7,0.1,1.4,0.2,2.1,0.2
			c1.3,0,2.5-0.2,3.4-0.7c0.9-0.5,1.7-1.1,2.3-1.9c0.6-0.8,1-1.8,1.3-3c0.3-1.2,0.4-2.4,0.4-3.8v-1.6H479c-0.7,1.5-1.8,2.7-3.2,3.4
			s-2.9,1.1-4.5,1.1c-1.9,0-3.5-0.3-4.8-1c-1.4-0.7-2.5-1.6-3.5-2.7c-0.9-1.1-1.6-2.5-2.1-4c-0.5-1.5-0.7-3.1-0.7-4.8
			c0-1.5,0.2-3,0.6-4.5c0.4-1.6,1-3,1.9-4.2c0.9-1.3,2.1-2.3,3.6-3.1c1.5-0.8,3.3-1.2,5.4-1.2c1.6,0,3,0.3,4.3,1
			c1.3,0.7,2.3,1.7,3.1,3.1h0v-3.6h3.8v22.7C483,466.9,482,470,480.2,472z M475,460.8c0.9-0.6,1.7-1.3,2.3-2.2
			c0.6-0.9,1-1.9,1.3-3.1c0.3-1.2,0.4-2.3,0.4-3.5c0-1.1-0.1-2.2-0.4-3.2c-0.3-1.1-0.7-2-1.2-2.9c-0.6-0.8-1.3-1.5-2.2-2
			c-0.9-0.5-2-0.8-3.3-0.8c-1.3,0-2.4,0.2-3.4,0.7c-0.9,0.5-1.7,1.2-2.3,2c-0.6,0.8-1,1.8-1.3,2.9c-0.3,1.1-0.4,2.2-0.4,3.4
			c0,1.1,0.1,2.2,0.3,3.4c0.2,1.1,0.6,2.1,1.2,3c0.5,0.9,1.3,1.6,2.2,2.2c0.9,0.6,2,0.8,3.4,0.8C472.9,461.7,474,461.4,475,460.8z"
			/>
		<path class="st1" d="M506.7,463.4c-1.9,1.4-4.2,2.1-7,2.1c-2,0-3.7-0.3-5.2-1s-2.7-1.5-3.7-2.7c-1-1.2-1.7-2.5-2.2-4.1
			c-0.5-1.6-0.8-3.3-0.8-5.2c0-1.9,0.3-3.6,0.9-5.2c0.6-1.6,1.4-2.9,2.4-4.1s2.3-2,3.7-2.7c1.4-0.6,3-1,4.7-1c2.2,0,4,0.5,5.5,1.4
			c1.5,0.9,2.6,2.1,3.5,3.5s1.5,2.9,1.8,4.6s0.5,3.2,0.4,4.8h-18.6c0,1.1,0.1,2.1,0.4,3.1c0.3,1,0.8,1.8,1.4,2.6
			c0.6,0.8,1.5,1.4,2.4,1.8c1,0.4,2.2,0.7,3.5,0.7c1.7,0,3.1-0.4,4.2-1.2c1.1-0.8,1.8-2,2.2-3.6h4
			C509.7,459.9,508.5,462,506.7,463.4z M505.7,447.4c-0.4-0.9-0.9-1.6-1.5-2.2s-1.4-1.1-2.2-1.5c-0.8-0.4-1.8-0.6-2.8-0.6
			c-1.1,0-2,0.2-2.9,0.6c-0.8,0.4-1.6,0.9-2.2,1.5c-0.6,0.6-1.1,1.4-1.4,2.2c-0.4,0.8-0.6,1.8-0.6,2.7h14.3
			C506.3,449.2,506.1,448.3,505.7,447.4z"/>
		<path class="st1" d="M549.6,435.5c-1.7-1.2-3.8-1.8-6.2-1.8c-2,0-3.8,0.4-5.3,1.2c-1.5,0.8-2.7,1.8-3.6,3.1
			c-0.9,1.3-1.6,2.8-2.1,4.4s-0.7,3.4-0.7,5.2c0,2,0.2,3.8,0.7,5.5s1.1,3.3,2.1,4.6c0.9,1.3,2.2,2.3,3.6,3.1
			c1.5,0.8,3.2,1.2,5.3,1.2c1.5,0,2.8-0.2,4-0.7s2.2-1.2,3-2.1c0.8-0.9,1.5-1.9,2-3.1c0.5-1.2,0.8-2.5,0.9-3.9h4.6
			c-0.4,4.3-1.9,7.7-4.5,10.1c-2.5,2.4-6,3.6-10.4,3.6c-2.7,0-5-0.5-7-1.4c-2-0.9-3.6-2.2-4.9-3.8c-1.3-1.6-2.3-3.5-3-5.7
			c-0.7-2.2-1-4.5-1-7s0.4-4.8,1.1-7c0.7-2.2,1.7-4.1,3.1-5.7c1.4-1.6,3.1-2.9,5.1-3.9c2-0.9,4.4-1.4,7-1.4c1.8,0,3.5,0.2,5.1,0.7
			c1.6,0.5,3,1.2,4.3,2.1c1.2,0.9,2.3,2.1,3.1,3.5c0.8,1.4,1.4,3,1.6,4.8H553C552.5,438.6,551.4,436.8,549.6,435.5z"/>
		<path class="st1" d="M584.9,464.9c-0.7,0.4-1.7,0.6-2.9,0.6c-1.1,0-1.9-0.3-2.5-0.9s-0.9-1.6-0.9-2.9c-1.1,1.3-2.4,2.3-3.9,2.9
			c-1.5,0.6-3.1,0.9-4.8,0.9c-1.1,0-2.2-0.1-3.2-0.4c-1-0.3-1.9-0.7-2.6-1.2c-0.7-0.5-1.3-1.3-1.8-2.1c-0.4-0.9-0.6-1.9-0.6-3.2
			c0-1.4,0.2-2.6,0.7-3.5c0.5-0.9,1.1-1.6,1.9-2.2c0.8-0.6,1.7-1,2.7-1.3s2-0.5,3.1-0.7c1.1-0.2,2.2-0.4,3.2-0.5
			c1-0.1,1.9-0.3,2.7-0.5c0.8-0.2,1.4-0.5,1.8-0.9c0.4-0.4,0.7-1,0.7-1.8c0-0.9-0.2-1.6-0.5-2.2c-0.3-0.5-0.8-1-1.3-1.2
			c-0.5-0.3-1.1-0.5-1.8-0.6c-0.7-0.1-1.3-0.1-1.9-0.1c-1.7,0-3.2,0.3-4.3,1c-1.2,0.7-1.8,1.9-1.9,3.7h-4.1c0.1-1.5,0.4-2.8,1-3.9
			c0.6-1.1,1.3-1.9,2.3-2.6c1-0.7,2.1-1.1,3.3-1.4c1.2-0.3,2.6-0.4,4-0.4c1.1,0,2.2,0.1,3.3,0.2c1.1,0.2,2.1,0.5,3,1
			c0.9,0.5,1.6,1.2,2.2,2.1c0.5,0.9,0.8,2.1,0.8,3.5v12.7c0,1,0.1,1.7,0.2,2.1c0.1,0.4,0.5,0.7,1.1,0.7c0.4,0,0.8-0.1,1.2-0.2V464.9
			z M578.3,452.1c-0.5,0.4-1.2,0.7-2,0.8c-0.8,0.2-1.7,0.3-2.6,0.4s-1.8,0.2-2.8,0.4c-0.9,0.1-1.8,0.4-2.5,0.7
			c-0.7,0.3-1.3,0.8-1.8,1.4c-0.5,0.6-0.7,1.4-0.7,2.4c0,0.7,0.1,1.2,0.4,1.7c0.3,0.5,0.6,0.8,1.1,1.1c0.4,0.3,0.9,0.5,1.5,0.6
			c0.6,0.1,1.2,0.2,1.8,0.2c1.3,0,2.5-0.2,3.5-0.5s1.7-0.8,2.4-1.4c0.6-0.6,1.1-1.2,1.3-1.8s0.4-1.3,0.4-1.8V452.1z"/>
		<path class="st1" d="M599.3,440.1v3.6h-4.9v15.4c0,0.5,0,0.9,0.1,1.2c0.1,0.3,0.2,0.5,0.5,0.7c0.2,0.2,0.5,0.3,0.9,0.3
			c0.4,0,0.9,0.1,1.6,0.1h1.9v3.6h-3.1c-1.1,0-2-0.1-2.7-0.2c-0.8-0.1-1.4-0.4-1.8-0.8c-0.5-0.4-0.8-0.9-1-1.6
			c-0.2-0.7-0.3-1.6-0.3-2.8v-15.8H586v-3.6h4.2v-7.4h4.1v7.4H599.3z"/>
		<path class="st1" d="M625.8,464.9c-0.7,0.4-1.7,0.6-2.9,0.6c-1.1,0-1.9-0.3-2.5-0.9s-0.9-1.6-0.9-2.9c-1.1,1.3-2.4,2.3-3.9,2.9
			c-1.5,0.6-3.1,0.9-4.8,0.9c-1.1,0-2.2-0.1-3.2-0.4c-1-0.3-1.9-0.7-2.6-1.2c-0.7-0.5-1.3-1.3-1.8-2.1c-0.4-0.9-0.6-1.9-0.6-3.2
			c0-1.4,0.2-2.6,0.7-3.5c0.5-0.9,1.1-1.6,1.9-2.2c0.8-0.6,1.7-1,2.7-1.3s2-0.5,3.1-0.7c1.1-0.2,2.2-0.4,3.2-0.5
			c1-0.1,1.9-0.3,2.7-0.5c0.8-0.2,1.4-0.5,1.8-0.9c0.4-0.4,0.7-1,0.7-1.8c0-0.9-0.2-1.6-0.5-2.2c-0.3-0.5-0.8-1-1.3-1.2
			c-0.5-0.3-1.1-0.5-1.8-0.6c-0.7-0.1-1.3-0.1-1.9-0.1c-1.7,0-3.2,0.3-4.3,1c-1.2,0.7-1.8,1.9-1.9,3.7h-4.1c0.1-1.5,0.4-2.8,1-3.9
			c0.6-1.1,1.3-1.9,2.3-2.6c1-0.7,2.1-1.1,3.3-1.4c1.2-0.3,2.6-0.4,4-0.4c1.1,0,2.2,0.1,3.3,0.2c1.1,0.2,2.1,0.5,3,1
			c0.9,0.5,1.6,1.2,2.2,2.1c0.5,0.9,0.8,2.1,0.8,3.5v12.7c0,1,0.1,1.7,0.2,2.1c0.1,0.4,0.5,0.7,1.1,0.7c0.4,0,0.8-0.1,1.2-0.2V464.9
			z M619.1,452.1c-0.5,0.4-1.2,0.7-2,0.8c-0.8,0.2-1.7,0.3-2.6,0.4s-1.8,0.2-2.8,0.4c-0.9,0.1-1.8,0.4-2.5,0.7
			c-0.7,0.3-1.3,0.8-1.8,1.4c-0.5,0.6-0.7,1.4-0.7,2.4c0,0.7,0.1,1.2,0.4,1.7c0.3,0.5,0.6,0.8,1.1,1.1c0.4,0.3,0.9,0.5,1.5,0.6
			c0.6,0.1,1.2,0.2,1.8,0.2c1.3,0,2.5-0.2,3.5-0.5s1.7-0.8,2.4-1.4c0.6-0.6,1.1-1.2,1.3-1.8s0.4-1.3,0.4-1.8V452.1z"/>
		<path class="st1" d="M633.9,430.7V465h-4.1v-34.3H633.9z"/>
		<path class="st1" d="M639.6,447.5c0.5-1.6,1.3-3,2.3-4.1c1-1.2,2.3-2.1,3.8-2.8s3.2-1,5.2-1c2,0,3.7,0.3,5.2,1
			c1.5,0.7,2.7,1.6,3.8,2.8c1,1.2,1.8,2.5,2.3,4.1s0.8,3.3,0.8,5.1s-0.3,3.5-0.8,5.1c-0.5,1.6-1.3,2.9-2.3,4.1
			c-1,1.2-2.3,2.1-3.8,2.7c-1.5,0.7-3.2,1-5.2,1c-2,0-3.7-0.3-5.2-1s-2.8-1.6-3.8-2.7c-1-1.2-1.8-2.5-2.3-4.1
			c-0.5-1.6-0.8-3.3-0.8-5.1S639.1,449.1,639.6,447.5z M643.8,456.6c0.4,1.2,1,2.1,1.7,2.9c0.7,0.8,1.5,1.4,2.5,1.8
			c0.9,0.4,1.9,0.6,3,0.6c1.1,0,2.1-0.2,3-0.6c0.9-0.4,1.8-1,2.5-1.8c0.7-0.8,1.3-1.8,1.7-2.9c0.4-1.2,0.6-2.5,0.6-4s-0.2-2.8-0.6-4
			c-0.4-1.2-1-2.2-1.7-3c-0.7-0.8-1.5-1.4-2.5-1.8c-0.9-0.4-1.9-0.6-3-0.6c-1.1,0-2.1,0.2-3,0.6c-0.9,0.4-1.8,1-2.5,1.8
			s-1.3,1.8-1.7,3c-0.4,1.2-0.6,2.5-0.6,4S643.4,455.4,643.8,456.6z"/>
		<path class="st1" d="M686.4,472c-1.9,2-4.8,3-8.7,3c-1.2,0-2.3-0.1-3.5-0.4c-1.2-0.3-2.3-0.7-3.3-1.2c-1-0.6-1.8-1.3-2.4-2.3
			c-0.6-0.9-1-2.1-1.1-3.4h4.1c0,0.7,0.3,1.4,0.7,1.9c0.4,0.5,1,0.9,1.6,1.2c0.6,0.3,1.3,0.6,2,0.7c0.7,0.1,1.4,0.2,2.1,0.2
			c1.3,0,2.5-0.2,3.4-0.7c0.9-0.5,1.7-1.1,2.3-1.9c0.6-0.8,1-1.8,1.3-3c0.3-1.2,0.4-2.4,0.4-3.8v-1.6h-0.1c-0.7,1.5-1.8,2.7-3.2,3.4
			s-2.9,1.1-4.5,1.1c-1.9,0-3.5-0.3-4.8-1c-1.4-0.7-2.5-1.6-3.5-2.7c-0.9-1.1-1.6-2.5-2.1-4c-0.5-1.5-0.7-3.1-0.7-4.8
			c0-1.5,0.2-3,0.6-4.5c0.4-1.6,1-3,1.9-4.2c0.9-1.3,2.1-2.3,3.6-3.1c1.5-0.8,3.3-1.2,5.4-1.2c1.6,0,3,0.3,4.3,1
			c1.3,0.7,2.3,1.7,3.1,3.1h0v-3.6h3.8v22.7C689.2,466.9,688.3,470,686.4,472z M681.2,460.8c0.9-0.6,1.7-1.3,2.3-2.2
			c0.6-0.9,1-1.9,1.3-3.1c0.3-1.2,0.4-2.3,0.4-3.5c0-1.1-0.1-2.2-0.4-3.2c-0.3-1.1-0.7-2-1.2-2.9c-0.6-0.8-1.3-1.5-2.2-2
			c-0.9-0.5-2-0.8-3.3-0.8c-1.3,0-2.4,0.2-3.4,0.7c-0.9,0.5-1.7,1.2-2.3,2c-0.6,0.8-1,1.8-1.3,2.9c-0.3,1.1-0.4,2.2-0.4,3.4
			c0,1.1,0.1,2.2,0.3,3.4c0.2,1.1,0.6,2.1,1.2,3c0.5,0.9,1.3,1.6,2.2,2.2c0.9,0.6,2,0.8,3.4,0.8
			C679.1,461.7,680.2,461.4,681.2,460.8z"/>
	</g>
	<g>
		<path d="M696.6,431.8h-3.2v-1.1h7.7v1.1h-3.2v8.8h-1.3V431.8z M702.8,430.7h2l3.2,8l3.1-8h2v9.9h-1.3v-8.7h0l-3.5,8.7h-0.7
			l-3.5-8.7h0v8.7h-1.3V430.7z"/>
	</g>
</g>
</svg>
