<?xml version="1.0" encoding="utf-8"?>
<!-- Generator: Adobe Illustrator 19.1.0, SVG Export Plug-In . SVG Version: 6.00 Build 0)  -->
<svg version="1.1" id="Layer_1" xmlns="http://www.w3.org/2000/svg" xmlns:xlink="http://www.w3.org/1999/xlink" x="0px" y="0px"
	 viewBox="0 0 792 612" style="enable-background:new 0 0 792 612;" xml:space="preserve">
<style type="text/css">
	.st0{fill:#00BBE6;}
	.st1{fill:#152333;}
</style>
<g>
	<g>
		<path class="st0" d="M208.8,353.8c-0.2-4.2,3.1-7.6,7.1-7.6H276c-12.1-0.1-23.5-4.3-32.6-11.6h-30.5c-9.2,0-16.6,7-16.6,16.2
			c0,7.7,5.9,14.4,14,14.4c3.3,0,6.7-1.3,9.2-3.8c0.7-0.7,1.3-1.5,1.8-2.4c-1.2,0.7-2.5,1.1-3.9,1.3
			C213.1,360.9,209,358,208.8,353.8z"/>
		<path class="st0" d="M208.6,320.1c-2-2.2-4.8-3.5-7.8-3.5h-2c-3.3,0-6-2.9-5.5-6.3c0.4-2.9,3.2-4.9,6.2-4.7
			c1.3,0.1,2.4,0.4,3.4,1.1c-0.5-0.8-0.9-1.4-1.6-2.1c-2.2-2.2-5.2-3.4-8.1-3.4c-9.9,0-16.1,11.4-9.7,20.8c2.7,3.9,7.3,6.2,12.1,6.2
			l0,0h20.2L208.6,320.1z"/>
		<path class="st1" d="M298.2,346.2h28.2l-9.5-5.4c0.2-0.6,0.3-1.2,0.3-1.9c0-2.7-1.5-5.1-3.7-6.4l-17.9-10c6-7.6,6.3-18.5,0.3-26.4
			l-29.4-39.1c-11.3,11.3-15.8,27-13.4,41.7L161,246.8c7.6,27.6,32.2,45.8,59.3,46.8c1.2,3.1,7.2,19.2,7.2,19.2
			c3.4,8.7,9,16.2,16,21.8h44.6c5.6,0,10.2,4.6,10.2,10.2L298.2,346.2L298.2,346.2z M309.9,336.5c1.3,0,2.4,1.1,2.4,2.4
			c0,1.3-1.1,2.4-2.4,2.4s-2.4-1.1-2.4-2.4C307.6,337.6,308.6,336.5,309.9,336.5z"/>
		<path class="st0" d="M295.6,322.5c0-6.4-5.2-11.6-11.6-11.6h-52.2l0,0c-4.1,0-7.4-3.4-7.1-7.6c0.3-4.3,4.4-7.1,8.6-6.6
			c1.4,0.2,2.7,0.6,3.9,1.3c-0.5-0.8-1.1-1.6-1.8-2.4c-2.5-2.5-5.9-3.8-9.2-3.8c-8.1,0-14,6.7-14,14.4c0,9.2,7.4,16.2,16.6,16.2l0,0
			L295.6,322.5L295.6,322.5z"/>
	</g>
	<g>
		<g>
			<rect x="361.2" y="267.4" class="st1" width="2.7" height="77.2"/>
		</g>
		<g>
			<path d="M402.8,294c0.3,0.5,0.6,1,1.1,1.3c0.5,0.3,1,0.6,1.6,0.7c0.6,0.2,1.3,0.2,1.9,0.2c0.4,0,0.9,0,1.4-0.1
				c0.5-0.1,1-0.2,1.4-0.4c0.4-0.2,0.8-0.5,1.1-0.9c0.3-0.4,0.4-0.8,0.4-1.4c0-0.6-0.2-1.1-0.6-1.5c-0.4-0.4-0.9-0.7-1.6-1
				c-0.6-0.3-1.4-0.5-2.2-0.7c-0.8-0.2-1.6-0.4-2.5-0.6c-0.9-0.2-1.7-0.5-2.5-0.8c-0.8-0.3-1.5-0.7-2.2-1.2
				c-0.6-0.5-1.2-1.1-1.6-1.8c-0.4-0.7-0.6-1.6-0.6-2.7c0-1.2,0.3-2.2,0.8-3.1c0.5-0.9,1.2-1.6,2-2.2c0.8-0.6,1.7-1,2.8-1.3
				c1-0.3,2-0.4,3.1-0.4c1.2,0,2.3,0.1,3.4,0.4c1.1,0.3,2.1,0.7,2.9,1.3c0.9,0.6,1.5,1.4,2,2.3c0.5,0.9,0.8,2.1,0.8,3.4h-4.9
				c0-0.7-0.2-1.2-0.4-1.7c-0.2-0.4-0.6-0.8-1-1.1c-0.4-0.3-0.9-0.4-1.4-0.5c-0.5-0.1-1.1-0.2-1.7-0.2c-0.4,0-0.8,0-1.2,0.1
				c-0.4,0.1-0.8,0.2-1.1,0.4c-0.3,0.2-0.6,0.5-0.8,0.8c-0.2,0.3-0.3,0.7-0.3,1.2c0,0.4,0.1,0.8,0.3,1.1c0.2,0.3,0.5,0.5,1,0.8
				c0.5,0.2,1.2,0.5,2.1,0.7c0.9,0.2,2,0.5,3.5,0.9c0.4,0.1,1,0.2,1.8,0.5c0.8,0.2,1.5,0.6,2.3,1.1c0.7,0.5,1.4,1.1,1.9,2
				s0.8,1.9,0.8,3.1c0,1-0.2,2-0.6,2.9c-0.4,0.9-1,1.7-1.8,2.3c-0.8,0.7-1.8,1.2-3,1.5c-1.2,0.4-2.6,0.5-4.1,0.5
				c-1.3,0-2.5-0.2-3.7-0.5c-1.2-0.3-2.2-0.8-3.1-1.5c-0.9-0.7-1.6-1.5-2.2-2.5c-0.5-1-0.8-2.2-0.8-3.6h4.9
				C402.3,292.9,402.5,293.5,402.8,294z"/>
			<path d="M433.8,299.7l-2.9-11.1h-0.1l-2.8,11.1h-4.7l-5.2-16.5h4.8l3,11.2h0.1l2.8-11.2h4.4l2.8,11.2h0.1l3-11.2h4.7l-5.2,16.5
				H433.8z"/>
			<path d="M446,280.6v-3.7h4.5v3.7H446z M450.6,283.1v16.5H446v-16.5H450.6z"/>
			<path d="M452.8,286.2v-3h2.7v-1.3c0-1.5,0.5-2.7,1.4-3.6c0.9-0.9,2.3-1.4,4.2-1.4c0.4,0,0.8,0,1.2,0c0.4,0,0.8,0.1,1.2,0.1v3.4
				c-0.5-0.1-1.1-0.1-1.7-0.1c-0.6,0-1.1,0.1-1.3,0.4c-0.3,0.3-0.4,0.8-0.4,1.5v1h3.1v3H460v13.5h-4.5v-13.5H452.8z"/>
			<path d="M475.3,283.1v3H472v8.2c0,0.8,0.1,1.3,0.4,1.5c0.3,0.3,0.8,0.4,1.5,0.4c0.3,0,0.5,0,0.7,0c0.2,0,0.5-0.1,0.7-0.1v3.5
				c-0.4,0.1-0.8,0.1-1.3,0.1c-0.5,0-0.9,0-1.4,0c-0.7,0-1.4,0-2-0.1c-0.6-0.1-1.2-0.3-1.7-0.6c-0.5-0.3-0.9-0.7-1.1-1.2
				c-0.3-0.5-0.4-1.2-0.4-2v-9.8h-2.7v-3h2.7v-5h4.5v5H475.3z"/>
			<path d="M499.8,276.8c1,0,1.9,0.2,2.8,0.5c0.8,0.3,1.5,0.8,2.1,1.4c0.6,0.6,1,1.2,1.3,2c0.3,0.8,0.5,1.6,0.5,2.4
				c0,1.3-0.3,2.5-0.8,3.5c-0.6,1-1.5,1.7-2.8,2.2v0.1c0.6,0.2,1.1,0.4,1.5,0.8c0.4,0.4,0.7,0.8,1,1.2c0.3,0.5,0.4,1,0.6,1.6
				c0.1,0.6,0.2,1.2,0.2,1.7c0,0.4,0,0.8,0.1,1.3c0,0.5,0.1,1,0.1,1.5c0.1,0.5,0.1,1,0.3,1.5c0.1,0.5,0.3,0.8,0.5,1.2h-5
				c-0.3-0.7-0.4-1.6-0.5-2.6c-0.1-1-0.2-2-0.3-2.9c-0.2-1.2-0.5-2.1-1.1-2.6c-0.6-0.6-1.5-0.8-2.7-0.8h-5v8.9h-5v-22.8H499.8z
				 M498,287.2c1.2,0,2-0.3,2.6-0.8c0.6-0.5,0.9-1.3,0.9-2.5c0-1.1-0.3-1.9-0.9-2.4c-0.6-0.5-1.4-0.8-2.6-0.8h-5.5v6.4H498z"/>
			<path d="M521.3,299.7v-2.3h-0.1c-0.6,1-1.3,1.7-2.2,2.1c-0.9,0.4-1.9,0.6-2.8,0.6c-1.2,0-2.2-0.2-3-0.5c-0.8-0.3-1.4-0.8-1.8-1.4
				c-0.4-0.6-0.8-1.3-0.9-2.1c-0.2-0.8-0.3-1.8-0.3-2.8v-10.2h4.5v9.3c0,1.4,0.2,2.4,0.6,3.1c0.4,0.7,1.2,1,2.3,1
				c1.2,0,2.1-0.4,2.7-1.1s0.8-1.9,0.8-3.6v-8.7h4.5v16.5H521.3z"/>
			<path d="M533.7,283.1v2.3h0.1c0.6-1,1.3-1.7,2.2-2.1c0.9-0.4,1.9-0.7,2.8-0.7c1.2,0,2.2,0.2,3,0.5c0.8,0.3,1.4,0.8,1.8,1.4
				c0.4,0.6,0.8,1.3,0.9,2.1s0.3,1.8,0.3,2.8v10.2h-4.5v-9.3c0-1.4-0.2-2.4-0.6-3.1c-0.4-0.7-1.2-1-2.3-1c-1.2,0-2.1,0.4-2.7,1.1
				c-0.6,0.7-0.8,1.9-0.8,3.6v8.7h-4.5v-16.5H533.7z"/>
			<path d="M557.6,283.1v3h-3.3v8.2c0,0.8,0.1,1.3,0.4,1.5c0.3,0.3,0.8,0.4,1.5,0.4c0.3,0,0.5,0,0.7,0c0.2,0,0.5-0.1,0.7-0.1v3.5
				c-0.4,0.1-0.8,0.1-1.3,0.1c-0.5,0-0.9,0-1.4,0c-0.7,0-1.4,0-2-0.1c-0.6-0.1-1.2-0.3-1.7-0.6c-0.5-0.3-0.9-0.7-1.1-1.2
				c-0.3-0.5-0.4-1.2-0.4-2v-9.8H547v-3h2.7v-5h4.5v5H557.6z"/>
			<path d="M560.4,280.6v-3.7h4.5v3.7H560.4z M564.9,283.1v16.5h-4.5v-16.5H564.9z"/>
			<path d="M573.1,283.1v2.2h0.1c0.6-0.9,1.3-1.5,2.2-2c0.8-0.5,1.8-0.7,2.9-0.7c1,0,2,0.2,2.9,0.6c0.9,0.4,1.5,1.1,2,2.1
				c0.5-0.7,1.2-1.4,2-1.9c0.8-0.6,1.8-0.8,3-0.8c0.9,0,1.7,0.1,2.4,0.3c0.7,0.2,1.4,0.6,1.9,1c0.5,0.5,0.9,1.1,1.2,1.8
				c0.3,0.8,0.4,1.7,0.4,2.7v11.1h-4.5v-9.4c0-0.6,0-1.1-0.1-1.6c0-0.5-0.2-0.9-0.4-1.3c-0.2-0.4-0.5-0.6-0.8-0.9
				c-0.4-0.2-0.9-0.3-1.5-0.3c-0.6,0-1.2,0.1-1.6,0.4c-0.4,0.2-0.7,0.6-0.9,1c-0.2,0.4-0.4,0.8-0.4,1.3c-0.1,0.5-0.1,1-0.1,1.5v9.2
				h-4.5v-9.3c0-0.5,0-1,0-1.5c0-0.5-0.1-0.9-0.3-1.3c-0.2-0.4-0.4-0.7-0.8-1c-0.4-0.2-0.9-0.4-1.6-0.4c-0.2,0-0.5,0-0.8,0.1
				c-0.4,0.1-0.7,0.3-1,0.5c-0.3,0.3-0.6,0.7-0.8,1.2c-0.2,0.5-0.4,1.2-0.4,2v9.6h-4.5v-16.5H573.1z"/>
			<path d="M602.7,295.7c0.7,0.7,1.7,1,2.9,1c0.9,0,1.7-0.2,2.4-0.7c0.7-0.5,1.1-0.9,1.2-1.5h4c-0.6,2-1.6,3.4-2.9,4.3
				c-1.3,0.9-2.9,1.3-4.8,1.3c-1.3,0-2.5-0.2-3.5-0.6c-1-0.4-1.9-1-2.7-1.8c-0.7-0.8-1.3-1.7-1.7-2.7c-0.4-1.1-0.6-2.2-0.6-3.5
				c0-1.2,0.2-2.4,0.6-3.5c0.4-1.1,1-2,1.7-2.8c0.7-0.8,1.6-1.4,2.7-1.8c1-0.4,2.2-0.7,3.4-0.7c1.4,0,2.6,0.3,3.7,0.8
				c1,0.5,1.9,1.3,2.6,2.2c0.7,0.9,1.2,2,1.5,3.1c0.3,1.2,0.4,2.4,0.3,3.7h-11.9C601.6,294,602,295.1,602.7,295.7z M607.8,287
				c-0.5-0.6-1.4-0.9-2.5-0.9c-0.7,0-1.3,0.1-1.8,0.4c-0.5,0.2-0.9,0.5-1.2,0.9c-0.3,0.4-0.5,0.7-0.6,1.2c-0.1,0.4-0.2,0.8-0.2,1.1
				h7.4C608.8,288.5,608.4,287.6,607.8,287z"/>
			<path d="M401.7,322.8v14.8h-2v-14.8h-2.8v-1.7h2.8v-1.5c0-0.7,0.1-1.4,0.2-2c0.1-0.6,0.3-1.1,0.6-1.5c0.3-0.4,0.7-0.8,1.2-1
				c0.5-0.2,1.2-0.4,2-0.4c0.3,0,0.6,0,0.8,0c0.3,0,0.5,0.1,0.9,0.1v1.7c-0.3,0-0.5-0.1-0.8-0.1c-0.2,0-0.5,0-0.7,0
				c-0.6,0-1,0.1-1.3,0.3c-0.3,0.2-0.5,0.4-0.7,0.7c-0.1,0.3-0.2,0.6-0.2,1c0,0.4,0,0.8,0,1.2v1.4h3.3v1.7H401.7z"/>
			<path d="M416.8,321.4c1,0.5,1.8,1.1,2.4,1.9c0.7,0.8,1.2,1.7,1.5,2.8c0.3,1.1,0.5,2.2,0.5,3.4c0,1.2-0.2,2.3-0.5,3.4
				c-0.3,1.1-0.8,2-1.5,2.8c-0.7,0.8-1.5,1.4-2.4,1.9c-1,0.5-2.1,0.7-3.3,0.7c-1.3,0-2.4-0.2-3.3-0.7c-1-0.5-1.8-1.1-2.4-1.9
				c-0.7-0.8-1.2-1.7-1.5-2.8c-0.3-1.1-0.5-2.2-0.5-3.4c0-1.2,0.2-2.3,0.5-3.4c0.3-1.1,0.8-2,1.5-2.8c0.7-0.8,1.5-1.4,2.4-1.9
				c1-0.5,2.1-0.7,3.3-0.7C414.7,320.7,415.8,320.9,416.8,321.4z M410.9,323c-0.7,0.4-1.3,0.9-1.8,1.6c-0.5,0.7-0.8,1.4-1.1,2.3
				c-0.2,0.8-0.4,1.7-0.4,2.6c0,0.9,0.1,1.7,0.4,2.6c0.2,0.8,0.6,1.6,1.1,2.3c0.5,0.7,1.1,1.2,1.8,1.6c0.7,0.4,1.6,0.6,2.5,0.6
				c1,0,1.8-0.2,2.5-0.6c0.7-0.4,1.3-0.9,1.8-1.6c0.5-0.7,0.8-1.4,1.1-2.3c0.2-0.8,0.4-1.7,0.4-2.6c0-0.9-0.1-1.7-0.4-2.6
				c-0.2-0.8-0.6-1.6-1.1-2.3c-0.5-0.7-1.1-1.2-1.8-1.6c-0.7-0.4-1.6-0.6-2.5-0.6C412.5,322.4,411.7,322.6,410.9,323z"/>
			<path d="M426.2,321.2v3.9h0.1c0.5-1.3,1.3-2.4,2.4-3.1c1.1-0.7,2.4-1.1,3.9-1v2c-0.9,0-1.7,0.1-2.5,0.4c-0.7,0.3-1.4,0.7-1.9,1.2
				c-0.5,0.5-1,1.2-1.3,1.9c-0.3,0.7-0.4,1.5-0.4,2.4v8.8h-2v-16.5H426.2z"/>
			<path d="M446.7,314.8v22.8h-2.2v-22.8H446.7z"/>
			<path d="M460.9,314.8c1,0,1.9,0.1,2.8,0.3c0.9,0.2,1.7,0.5,2.3,0.9s1.2,1,1.6,1.7c0.4,0.7,0.6,1.6,0.6,2.7c0,0.6-0.1,1.2-0.3,1.7
				c-0.2,0.6-0.5,1.1-0.8,1.5c-0.4,0.5-0.8,0.8-1.2,1.2c-0.5,0.3-1,0.5-1.6,0.7v0.1c1.5,0.2,2.6,0.8,3.5,1.8c0.9,1,1.3,2.3,1.3,3.8
				c0,0.4,0,0.8-0.1,1.2c-0.1,0.5-0.2,0.9-0.4,1.4c-0.2,0.5-0.5,1-0.8,1.4c-0.4,0.5-0.8,0.9-1.5,1.2c-0.6,0.4-1.4,0.6-2.2,0.9
				c-0.9,0.2-1.9,0.3-3.2,0.3h-9.7v-22.8H460.9z M460.9,324.8c0.9,0,1.6-0.1,2.3-0.3c0.6-0.2,1.2-0.5,1.6-0.8c0.4-0.4,0.7-0.8,1-1.2
				c0.2-0.5,0.3-1,0.3-1.5c0-2.9-1.7-4.3-5.1-4.3h-7.5v8.2H460.9z M460.9,335.8c0.8,0,1.6-0.1,2.3-0.2c0.7-0.1,1.4-0.4,1.9-0.8
				c0.6-0.4,1-0.8,1.3-1.5c0.3-0.6,0.5-1.4,0.5-2.3c0-1.5-0.5-2.6-1.6-3.3s-2.5-1.1-4.5-1.1h-7.5v9.1H460.9z"/>
			<path d="M475.7,314.8l7.6,20l7.9-20h3.2v22.8h-2.2v-19.7h-0.1l-7.8,19.7h-2l-7.5-19.7h-0.1v19.7h-2.2v-22.8H475.7z"/>
			<path d="M516.2,314.8c1,0,1.9,0.1,2.8,0.3c0.9,0.2,1.7,0.5,2.3,0.9s1.2,1,1.6,1.7c0.4,0.7,0.6,1.6,0.6,2.7c0,0.6-0.1,1.2-0.3,1.7
				c-0.2,0.6-0.5,1.1-0.8,1.5c-0.4,0.5-0.8,0.8-1.2,1.2c-0.5,0.3-1,0.5-1.6,0.7v0.1c1.5,0.2,2.6,0.8,3.5,1.8c0.9,1,1.3,2.3,1.3,3.8
				c0,0.4,0,0.8-0.1,1.2c-0.1,0.5-0.2,0.9-0.4,1.4c-0.2,0.5-0.5,1-0.8,1.4c-0.4,0.5-0.8,0.9-1.5,1.2c-0.6,0.4-1.4,0.6-2.2,0.9
				c-0.9,0.2-1.9,0.3-3.2,0.3h-9.7v-22.8H516.2z M516.2,324.8c0.9,0,1.6-0.1,2.3-0.3c0.6-0.2,1.2-0.5,1.6-0.8c0.4-0.4,0.7-0.8,1-1.2
				c0.2-0.5,0.3-1,0.3-1.5c0-2.9-1.7-4.3-5.1-4.3h-7.5v8.2H516.2z M516.2,335.8c0.8,0,1.6-0.1,2.3-0.2c0.7-0.1,1.4-0.4,1.9-0.8
				c0.6-0.4,1-0.8,1.3-1.5c0.3-0.6,0.5-1.4,0.5-2.3c0-1.5-0.5-2.6-1.6-3.3c-1-0.7-2.5-1.1-4.5-1.1h-7.5v9.1H516.2z"/>
			<path d="M529.7,314.8v22.8h-2v-22.8H529.7z"/>
			<path d="M545,337.7v-3H545c-0.5,1.1-1.3,2-2.3,2.5c-1,0.6-2.1,0.9-3.4,0.9c-1,0-1.9-0.1-2.7-0.4c-0.7-0.3-1.3-0.7-1.8-1.2
				c-0.5-0.5-0.8-1.2-1-2c-0.2-0.8-0.3-1.6-0.3-2.6v-10.7h2v10.7c0,1.5,0.4,2.6,1,3.4s1.8,1.2,3.4,1.2c0.9,0,1.6-0.2,2.2-0.6
				c0.6-0.4,1.1-0.9,1.5-1.5c0.4-0.6,0.7-1.3,0.9-2.1s0.3-1.6,0.3-2.4v-8.7h2v16.5H545z"/>
			<path d="M552.3,332.2c0.2,0.8,0.5,1.5,1,2.1c0.4,0.6,1,1.1,1.7,1.5c0.7,0.4,1.5,0.6,2.5,0.6c1.5,0,2.6-0.4,3.5-1.2
				c0.8-0.8,1.4-1.8,1.7-3.1h2c-0.4,1.9-1.2,3.3-2.4,4.3c-1.1,1-2.8,1.5-4.8,1.5c-1.3,0-2.4-0.2-3.4-0.7c-0.9-0.5-1.7-1.1-2.3-1.9
				c-0.6-0.8-1-1.7-1.3-2.8c-0.3-1.1-0.4-2.2-0.4-3.3c0-1.1,0.1-2.2,0.4-3.2c0.3-1,0.7-2,1.3-2.8c0.6-0.8,1.4-1.5,2.3-2
				c0.9-0.5,2.1-0.8,3.4-0.8c1.3,0,2.5,0.3,3.4,0.8c0.9,0.5,1.7,1.2,2.3,2.1c0.6,0.9,1,1.9,1.3,3c0.3,1.1,0.4,2.3,0.3,3.4H552
				C552,330.7,552.1,331.4,552.3,332.2z M562.3,326c-0.2-0.7-0.6-1.3-1-1.9c-0.4-0.5-1-1-1.6-1.3c-0.6-0.3-1.4-0.5-2.2-0.5
				c-0.8,0-1.6,0.2-2.2,0.5c-0.6,0.3-1.2,0.8-1.6,1.3c-0.4,0.5-0.8,1.2-1.1,1.9c-0.3,0.7-0.4,1.4-0.5,2.2h10.7
				C562.7,327.5,562.5,326.7,562.3,326z"/>
			<path d="M569.5,321.2v2.8h0.1c0.5-1,1.2-1.8,2.1-2.4c0.9-0.6,2-0.9,3.3-0.9c1.1,0,2.1,0.3,3,0.8c0.9,0.5,1.5,1.3,1.8,2.4
				c0.5-1.1,1.2-1.9,2.2-2.4c1-0.5,2-0.8,3.1-0.8c3.6,0,5.5,1.9,5.5,5.8v11.2h-2v-11.1c0-1.4-0.3-2.4-0.9-3.1
				c-0.6-0.7-1.6-1.1-3-1.1c-0.9,0-1.6,0.2-2.2,0.5c-0.6,0.3-1,0.8-1.4,1.3c-0.3,0.6-0.6,1.2-0.7,1.9c-0.1,0.7-0.2,1.5-0.2,2.2v9.3
				h-2v-11.2c0-0.6-0.1-1.1-0.2-1.6c-0.1-0.5-0.3-0.9-0.6-1.3c-0.3-0.4-0.6-0.7-1.1-0.9c-0.4-0.2-1-0.3-1.6-0.3
				c-0.9,0-1.6,0.2-2.2,0.5c-0.6,0.3-1.1,0.7-1.5,1.3c-0.4,0.5-0.7,1.2-0.9,1.9c-0.2,0.7-0.3,1.5-0.3,2.4v9.2h-2v-16.5H569.5z"/>
			<path d="M596.3,314.8v3.2h-2v-3.2H596.3z M596.3,321.2v16.5h-2v-16.5H596.3z"/>
			<path d="M598.9,321.2h2.5l4.7,6.3l4.6-6.3h2.5l-5.9,7.9l6.4,8.6h-2.6l-5.2-6.9l-5.1,6.9h-2.5l6.4-8.6L598.9,321.2z"/>
			<path d="M619.3,315.4c0.4,0.2,0.8,0.4,1.1,0.7c0.3,0.3,0.6,0.7,0.7,1.1c0.2,0.4,0.3,0.9,0.3,1.4c0,0.5-0.1,0.9-0.3,1.4
				c-0.2,0.4-0.4,0.8-0.7,1.1c-0.3,0.3-0.7,0.6-1.1,0.7c-0.4,0.2-0.9,0.3-1.4,0.3c-0.5,0-0.9-0.1-1.4-0.3c-0.4-0.2-0.8-0.4-1.1-0.7
				c-0.3-0.3-0.6-0.7-0.7-1.1c-0.2-0.4-0.3-0.9-0.3-1.4c0-0.5,0.1-0.9,0.3-1.4c0.2-0.4,0.4-0.8,0.7-1.1c0.3-0.3,0.7-0.6,1.1-0.7
				c0.4-0.2,0.9-0.3,1.4-0.3C618.5,315.1,618.9,315.2,619.3,315.4z M616.8,315.9c-0.4,0.2-0.7,0.4-0.9,0.6c-0.3,0.3-0.5,0.6-0.6,0.9
				s-0.2,0.7-0.2,1.2c0,0.4,0.1,0.8,0.2,1.2s0.3,0.7,0.6,0.9c0.3,0.3,0.6,0.5,0.9,0.6c0.4,0.2,0.7,0.2,1.2,0.2
				c0.4,0,0.8-0.1,1.2-0.2c0.4-0.2,0.7-0.4,0.9-0.6c0.3-0.3,0.5-0.6,0.6-0.9c0.1-0.4,0.2-0.7,0.2-1.2c0-0.4-0.1-0.8-0.2-1.2
				c-0.1-0.4-0.4-0.7-0.6-0.9c-0.3-0.3-0.6-0.5-0.9-0.6c-0.4-0.2-0.7-0.2-1.2-0.2C617.6,315.6,617.2,315.7,616.8,315.9z
				 M616.7,320.6v-4h1.5c0.5,0,0.8,0.1,1,0.3c0.2,0.2,0.3,0.5,0.3,0.8c0,0.2,0,0.3-0.1,0.5c-0.1,0.1-0.1,0.2-0.2,0.3
				c-0.1,0.1-0.2,0.2-0.3,0.2c-0.1,0.1-0.3,0.1-0.4,0.1l1.2,1.8h-0.6l-1.1-1.8h-0.8v1.8H616.7z M618.3,318.4c0.1,0,0.3,0,0.4-0.1
				c0.1,0,0.2-0.1,0.3-0.2c0.1-0.1,0.1-0.2,0.1-0.4c0-0.1,0-0.3-0.1-0.3c-0.1-0.1-0.1-0.2-0.2-0.2c-0.1-0.1-0.2-0.1-0.3-0.1
				c-0.1,0-0.2,0-0.4,0h-0.9v1.4h0.7C618,318.4,618.2,318.4,618.3,318.4z"/>
		</g>
	</g>
	<g>
		<path d="M618.3,277.9h-3.2v-1.1h7.7v1.1h-3.2v8.8h-1.3V277.9z M624.6,276.8h2l3.2,8l3.1-8h2v9.9h-1.3V278h0l-3.5,8.7h-0.7
			l-3.5-8.7h0v8.7h-1.3V276.8z"/>
	</g>
</g>
</svg>
