<?xml version="1.0" encoding="utf-8"?>
<!-- Generator: Adobe Illustrator 18.1.1, SVG Export Plug-In . SVG Version: 6.00 Build 0)  -->
<svg version="1.1" id="Layer_1" xmlns="http://www.w3.org/2000/svg" xmlns:xlink="http://www.w3.org/1999/xlink" x="0px" y="0px"
	 width="106.063px" height="106.063px" viewBox="0 0 106.063 106.063" enable-background="new 0 0 106.063 106.063"
	 xml:space="preserve">
<g>
	<path fill="#FFFFFF" d="M106.059,29.378c-0.006-1.067-0.018-2.133-0.047-3.201c-0.062-2.323-0.199-4.667-0.612-6.966
		c-0.419-2.334-1.104-4.504-2.183-6.625c-1.06-2.082-2.445-3.988-4.097-5.64c-1.652-1.652-3.557-3.037-5.64-4.097
		c-2.118-1.078-4.289-1.763-6.621-2.182c-2.3-0.414-4.644-0.551-6.969-0.613c-1.067-0.029-2.134-0.041-3.201-0.048
		C75.421,0,74.154,0,72.887,0H44.81H33.179c-1.267,0-2.534,0-3.8,0.007c-1.067,0.007-2.135,0.019-3.201,0.048
		c-0.581,0.016-1.163,0.036-1.746,0.064c-1.748,0.084-3.499,0.239-5.222,0.549c-1.749,0.314-3.407,0.778-5.021,1.445
		c-0.538,0.222-1.071,0.467-1.6,0.737c-1.562,0.795-3.025,1.773-4.355,2.909C7.789,6.138,7.361,6.534,6.948,6.947
		C5.295,8.6,3.91,10.505,2.85,12.587c-1.079,2.12-1.763,4.291-2.183,6.625c-0.413,2.298-0.55,4.643-0.612,6.966
		c-0.029,1.068-0.042,2.134-0.049,3.201C-0.001,30.645,0,31.912,0,33.179V50.47v22.418c0,1.268-0.001,2.534,0.007,3.802
		c0.007,1.067,0.019,2.133,0.049,3.199c0.062,2.324,0.2,4.669,0.612,6.966c0.419,2.333,1.103,4.505,2.183,6.625
		c1.06,2.083,2.445,3.988,4.097,5.639c1.651,1.653,3.557,3.038,5.641,4.099c2.119,1.078,4.289,1.762,6.621,2.181
		c2.298,0.414,4.644,0.551,6.968,0.613c1.066,0.028,2.134,0.041,3.201,0.047c1.266,0.009,2.532,0.008,3.8,0.008h39.709
		c1.266,0,2.534,0.001,3.8-0.008c1.067-0.006,2.133-0.019,3.201-0.047c2.325-0.062,4.669-0.2,6.969-0.613
		c2.332-0.419,4.502-1.103,6.621-2.181c2.083-1.061,3.988-2.446,5.64-4.099c1.652-1.652,3.038-3.556,4.097-5.639
		c1.079-2.12,1.764-4.292,2.183-6.625c0.413-2.297,0.55-4.642,0.612-6.966c0.029-1.066,0.041-2.132,0.047-3.199
		c0.008-1.268,0.008-2.534,0.008-3.802V33.179C106.066,31.912,106.067,30.645,106.059,29.378z"/>
	<path d="M84.038,65.464c0.117-0.399,0.238-0.796,0.341-1.205c4.402-17.539-6.342-38.275-24.523-49.193
		c7.968,10.801,11.49,23.883,8.36,35.324c-0.279,1.02-0.615,2-0.986,2.952c-0.403-0.264-0.91-0.565-1.591-0.94
		c0,0-18.086-11.167-37.688-30.918c-0.514-0.519,10.453,15.675,22.899,28.824C44.987,47.016,28.646,35.126,18.3,25.658
		c1.271,2.12,2.783,4.161,4.444,6.126c8.64,10.956,19.906,24.475,33.404,34.855c-9.484,5.804-22.885,6.255-36.227,0.006
		c-3.3-1.547-6.403-3.413-9.274-5.533c5.648,9.034,14.347,16.828,24.934,21.379c12.625,5.426,25.18,5.058,34.531,0.089l-0.007,0.011
		c0.032-0.02,0.067-0.041,0.1-0.061c0.42-0.225,0.836-0.457,1.242-0.7c4.517-2.319,13.331-4.607,18.067,4.609
		c1.166,2.268,3.645-9.752-5.468-20.965C84.043,65.469,84.041,65.467,84.038,65.464z"/>
</g>
<g>
</g>
<g>
</g>
<g>
</g>
<g>
</g>
<g>
</g>
<g>
</g>
</svg>
