<?xml version="1.0" encoding="utf-8"?>
<!-- Generator: Adobe Illustrator 22.0.0, SVG Export Plug-In . SVG Version: 6.00 Build 0)  -->
<svg version="1.1" id="Layer_1" xmlns="http://www.w3.org/2000/svg" xmlns:xlink="http://www.w3.org/1999/xlink" x="0px" y="0px"
	 viewBox="0 0 121.3 65.7" style="enable-background:new 0 0 121.3 65.7;" xml:space="preserve">
<style type="text/css">
	.st0{fill:none;stroke:#000000;stroke-width:1.5;stroke-miterlimit:10;}
	.st1{fill:none;stroke:#00BBE6;stroke-width:1.5;stroke-miterlimit:10;}
</style>
<g>
	<g>
		<line class="st0" x1="57.9" y1="5.3" x2="57.9" y2="60.3"/>
		<g>
			<g>
				<line class="st0" x1="5.9" y1="32.8" x2="115.3" y2="32.8"/>
				<g>
					<path d="M7,32.8l1.3-2.2l-0.1,0l-3.5,1.4c-1.2,0.3-2.5,0.5-3.7,0.8c1.2,0.3,2.5,0.5,3.7,0.8L8.2,35l0.1,0L7,32.8z"/>
				</g>
				<g>
					<path d="M114.3,32.8l-1.3-2.2l0.1,0l3.5,1.4c1.2,0.3,2.5,0.5,3.7,0.8c-1.2,0.3-2.5,0.5-3.7,0.8L113,35l-0.1,0L114.3,32.8z"/>
				</g>
			</g>
		</g>
	</g>
	<path class="st1" d="M108.7,3C96.5,25.7,81.3,28.5,74.7,25.5c-11.4-5.2-12.2-7.7-23.3-14.4c-6.9-4.2-20.3-5.8-30.1,5.5
		C16.1,22.5,16,30,16.2,33.1"/>
	<path class="st1" d="M108.7,62.3C96.5,39.5,81.3,36.8,74.7,39.8C63.3,45,62.6,47.5,51.4,54.2c-6.9,4.2-20.3,5.8-30.1-5.5
		c-5.1-5.9-5.2-13.5-5.1-16.6"/>
</g>
</svg>
