<?xml version="1.0" encoding="utf-8"?>
<!-- Generator: Adobe Illustrator 22.0.0, SVG Export Plug-In . SVG Version: 6.00 Build 0)  -->
<svg version="1.1" id="Layer_1" xmlns="http://www.w3.org/2000/svg" xmlns:xlink="http://www.w3.org/1999/xlink" x="0px" y="0px"
	 viewBox="0 0 483.5 526" style="enable-background:new 0 0 483.5 526;" xml:space="preserve">
<style type="text/css">
	.st0{fill:#FFFFFF;stroke:#FFFFFF;stroke-miterlimit:10;}
	.st1{fill:#8C6239;}
	.st2{fill:none;stroke:#000000;stroke-miterlimit:10;}
	.st3{fill:#FFFFFF;stroke:#000000;stroke-miterlimit:10;}
	.st4{fill:#754C24;}
	.st5{fill:#152333;}
	.st6{fill:#FFFFFF;}
	.st7{fill:#A67C52;}
</style>
<path class="st0" d="M206.1,515.9"/>
<polygon class="st1" points="185.5,3.8 -0.4,105.3 51.8,197.4 237.7,95.9 "/>
<path class="st1" d="M321.8,143.3l-1.9-1l-83.6-45.4l36.3-64.2l14.8-26.2l103.7,56.4l48,26.1l33,17.9L444,156.8l-5.5,9.8L421,197.3
	l-3.9-2.1L377,173.4l-0.7-0.4"/>
<line class="st2" x1="424.1" y1="201.1" x2="424.1" y2="201.3"/>
<path class="st3" d="M422.7,310.1"/>
<path class="st3" d="M52.1,309.4"/>
<line class="st2" x1="52.1" y1="197.8" x2="52.1" y2="202.3"/>
<polygon class="st4" points="53.5,196.9 236.3,96.9 421.9,198.2 238.8,299.8 "/>
<path class="st5" d="M381.9,77.4c-1.4-1.1-3.1-1.8-4.9-2.4c-7.6-2.2-15.5,0.5-20.9,6.4l-22.5,24.2l-21.2,22.8
	c-15.5-24.6-45.1-34.2-72.4-22.2l-28,12.3l-106.1,46.8c21,44.1,60.2,70.3,102.8,74.6L53.5,406.6c82.7-1.4,84.6,13.4,111.8-69.2
	c9.6-1.1,59.1-6.8,59.1-6.8c6.4-0.9,12.6-2,18.7-3.6c0,0,0,0,0.1-0.1c-0.1-15.3,1.9-31,6.5-46.7c8.9-30.3,25.6-55.9,46.9-74.7
	c21.3-18.7,47.1-30.7,74-33.7l17-58.2l17.8-60.9L381.9,77.4z M364,95.7c1.2-4,5-6.4,8.6-5.3c3.6,0.9,5.5,5.1,4.3,9.1
	c-1.2,4-5,6.4-8.6,5.3C364.8,103.8,362.9,99.7,364,95.7z"/>
<g>
	<polygon class="st6" points="249,324.7 243.7,326.2 244,316.4 245,305.7 246.6,295.4 250.2,280.2 254.6,267.2 260.2,254.4 
		266.7,242.3 275.2,229.4 280.6,222.5 288.5,213.6 296.9,205.6 304.6,199.3 310.5,195 315.6,191.7 320.4,188.9 327,185.2 
		333.6,182.2 340.9,179.2 346.4,177.3 352,175.6 358.1,174.2 364.9,173 369.8,172.2 367,181.2 365.9,186.1 362,199.4 357.6,214 
		356.6,216.8 354.4,222.7 352.8,226.7 350.8,231.2 348.8,235.6 346.6,239.9 344.1,244.6 341.8,248.9 338,255 334.3,260.5 
		331.5,264.4 327.2,270 323.8,274.1 320.7,277.7 316.7,282.1 314.4,284.5 311.3,287.4 308.1,290.6 302.2,295.6 298.5,298.7 
		290,304.7 286.4,307.1 280.9,310.5 275.9,313.3 270.8,315.9 265.6,318.4 263.8,319.2 260.2,320.6 257.1,321.9 253.5,323.2 	"/>
	<path class="st6" d="M346.5,177.8l5.6-1.7l6.2-1.4l6.9-1.3l4.1-0.6l-2.6,8.2l0,0l0,0l-1.1,4.9l-1.4,4.7l-1.3,4.6l-1.2,4l-1.9,6
		l-1,3.3l-1.6,5.3l-0.9,2.8l-2.2,5.9l-1.6,3.9l-1.9,4.6l-2,4.3l-2.2,4.4l-2.4,4.6l-2.4,4.2l-3.7,6.1l-3.7,5.6l-2.8,3.9l-4.2,5.6
		l-3.4,4.1l-3.2,3.6l-4,4.3l-2.3,2.3l-3.1,3l-3.1,3.2l-5.8,4.9l-3.7,3.1l-3.8,2.8l-4.5,3.2l-3.6,2.4l-5.5,3.3l-5,2.9l-5,2.6
		l-5.2,2.5l-1.7,0.8l-2.3,1l-1.3,0.5l-3.1,1.2l-3.5,1.3l-4.5,1.5l-4.6,1.3l0.2-9l0.9-10.7l1.6-10.3l3.6-15.2l4.4-12.9l5.6-12.9
		l6.4-12l8.5-12.9l5.4-6.9l8-8.9l8.3-8l7.6-6.3l5.9-4.3l5-3.3l4.7-2.9l6.7-3.6l6.6-3.1l7.3-2.9L346.5,177.8 M346.3,176.8l-5.5,1.9
		l-7.3,3l-6.6,3.1l-6.8,3.7l-4.7,2.9l-5.1,3.3l-6,4.4l-7.7,6.3l-8.4,8l-8,8.9l-5.5,6.9l-8.6,12.9l-6.5,12l-5.6,12.9l-4.4,13
		l-3.6,15.3l-1.6,10.3l-1,10.8l-0.3,10.4l6-1.6l4.5-1.5l3.6-1.3l3.2-1.2l1.3-0.5l2.3-1l1.8-0.8l5.2-2.5l5.1-2.7l5-2.9l5.5-3.3
		l3.6-2.4l4.6-3.2l3.9-2.8l3.8-3.2l5.8-4.9l3.2-3.2l3.1-3l2.3-2.3l4-4.3l3.2-3.6l3.4-4.1l4.3-5.6l2.9-4l3.7-5.6l3.7-6.1l2.4-4.2
		l2.4-4.6l2.2-4.4l2-4.4l1.9-4.6l1.6-3.9l2.2-5.9l0.9-2.8l1.6-5.3l1-3.3l1.9-6l1.2-4l1.3-4.6l1.4-4.7l1.2-4.9l3.2-9.7l-5.8,0.8
		l-6.9,1.3l-6.2,1.4L346.3,176.8L346.3,176.8z"/>
</g>
<ellipse transform="matrix(0.3591 -0.9333 0.9333 0.3591 146.4395 408.1594)" class="st0" cx="370.4" cy="97.4" rx="5.6" ry="4.8"/>
<polyline class="st7" points="422.7,310.1 421.4,412.3 238.8,513.8 241.5,300.1 424.1,198.5 424.1,201.1 "/>
<rect x="72.5" y="183.4" transform="matrix(0.4848 -0.8746 0.8746 0.4848 -192.0613 256.6403)" class="st1" width="98.7" height="216"/>
<rect x="249.5" y="242.8" transform="matrix(0.8746 -0.4848 0.4848 0.8746 -97.128 208.3139)" class="st1" width="209.4" height="98.3"/>
<polygon class="st7" points="238.8,513.8 52.1,406.1 52.1,309.4 192.3,386.9 236.7,303.8 238.8,299.8 242.2,305.9 "/>
</svg>
