<?xml version="1.0" encoding="utf-8"?>
<!-- Generator: Adobe Illustrator 19.1.0, SVG Export Plug-In . SVG Version: 6.00 Build 0)  -->
<svg version="1.1" id="Layer_1" xmlns="http://www.w3.org/2000/svg" xmlns:xlink="http://www.w3.org/1999/xlink" x="0px" y="0px"
	 viewBox="0 0 792 612" style="enable-background:new 0 0 792 612;" xml:space="preserve">
<style type="text/css">
	.st0{fill:#00BBE6;}
	.st1{fill:#152333;}
</style>
<g>
	<g>
		<path class="st1" d="M570.6,365.9c0.4-1.4,0.7-2.9,0.7-4.5c0-6.5-3.6-12.2-8.9-15.2l-42.7-24c14.4-18.2,15-44.1,0.8-63l-70-93.4
			c-27.1,27.1-37.7,64.4-31.9,99.5L198.6,141.6C216.8,207.3,275.3,251,340,253.4c0,0,9.2,24.6,19.4,52.1l31.6-18.2l79.3,45.8l0,45.7
			l123.1,0v0L570.6,365.9z M553.9,367c-3.1,0-5.6-2.5-5.6-5.6c0-3.1,2.5-5.6,5.6-5.6c3.1,0,5.6,2.5,5.6,5.6
			C559.6,364.5,557.1,367,553.9,367z"/>
		<polygon class="st0" points="391,378.8 311.7,333 311.7,424.6 391,470.4 470.3,424.6 470.3,333 		"/>
	</g>
	<g>
		<path d="M487.2,393.6H484v-1.1h7.6v1.1h-3.2v8.7h-1.3V393.6z M493.3,392.5h2l3.2,7.9l3.1-7.9h2v9.8h-1.3v-8.7h0l-3.5,8.7h-0.7
			l-3.5-8.7h0v8.7h-1.3V392.5z"/>
	</g>
</g>
</svg>
