<?xml version="1.0" encoding="utf-8"?>
<!-- Generator: Adobe Illustrator 19.1.0, SVG Export Plug-In . SVG Version: 6.00 Build 0)  -->
<svg version="1.1" id="Layer_1" xmlns="http://www.w3.org/2000/svg" xmlns:xlink="http://www.w3.org/1999/xlink" x="0px" y="0px"
	 viewBox="0 0 792 612" style="enable-background:new 0 0 792 612;" xml:space="preserve">
<style type="text/css">
	.st0{fill:#FFFFFF;}
</style>
<g>
	<g>
		<path class="st0" d="M312.8,419.7c-0.5-9.9,7.3-18,17-18h143c-28.9-0.2-56-10.3-77.5-27.6h-72.7c-21.9,0-39.6,16.7-39.6,38.6
			c0,18.4,14.1,34.3,33.3,34.3c7.9,0,15.9-3,21.9-9c1.7-1.7,3.2-3.6,4.4-5.6c-2.9,1.7-5.9,2.7-9.3,3.1
			C323.2,436.7,313.4,429.9,312.8,419.7z"/>
		<path class="st0" d="M312.4,339.6c-4.7-5.3-11.5-8.3-18.6-8.3h-4.7c-7.9,0-14.2-7-13.1-15.1c1-7,7.7-11.7,14.8-11.2
			c3.1,0.2,5.7,1,8.2,2.5c-1.1-1.8-2.2-3.4-3.7-5c-5.3-5.3-12.3-8-19.3-8c-23.6,0-38.4,27.2-23.2,49.6c6.4,9.4,17.4,14.7,28.8,14.7
			l0,0h48L312.4,339.6z"/>
		<path class="st0" d="M525.8,401.7H593l-22.7-12.9c0.4-1.4,0.7-2.9,0.7-4.5c0-6.5-3.6-12.2-8.9-15.2l-42.6-23.9
			c14.3-18.1,15-44,0.8-62.9l-69.9-93.2c-27,27-37.6,64.2-31.8,99.3L199,165c18.2,65.6,76.6,109.1,141.1,111.5
			c2.8,7.4,17.2,45.6,17.2,45.6c8.1,20.8,21.4,38.6,38,52h106.2c13.4,0,24.2,10.9,24.2,24.2L525.8,401.7L525.8,401.7z M553.6,378.7
			c3.1,0,5.6,2.5,5.6,5.6c0,3.1-2.5,5.6-5.6,5.6s-5.6-2.5-5.6-5.6C548,381.2,550.5,378.7,553.6,378.7z"/>
		<path class="st0" d="M519.5,345.2c0-15.2-12.3-27.5-27.5-27.5H367.7l0,0c-9.7,0-17.5-8.1-17-18c0.6-10.2,10.4-17,20.5-15.8
			c3.4,0.4,6.4,1.4,9.3,3.1c-1.2-2-2.7-3.9-4.4-5.6c-6-6-14-9-21.9-9c-19.2,0-33.3,15.9-33.3,34.3c0,21.9,17.7,38.6,39.6,38.6l0,0
			L519.5,345.2L519.5,345.2z"/>
	</g>
	<g>
		<path class="st0" d="M543.4,337.8h-3.2v-1.1h7.7v1.1h-3.2v8.8h-1.3V337.8z M549.6,336.7h2l3.2,8l3.1-8h2v9.9h-1.3v-8.7h0l-3.5,8.7
			h-0.7l-3.5-8.7h0v8.7h-1.3V336.7z"/>
	</g>
</g>
</svg>
