<?xml version="1.0" encoding="utf-8"?>
<!-- Generator: Adobe Illustrator 19.1.0, SVG Export Plug-In . SVG Version: 6.00 Build 0)  -->
<svg version="1.1" id="Layer_1" xmlns="http://www.w3.org/2000/svg" xmlns:xlink="http://www.w3.org/1999/xlink" x="0px" y="0px"
	 viewBox="0 0 792 612" style="enable-background:new 0 0 792 612;" xml:space="preserve">
<style type="text/css">
	.st0{fill:#00BBE6;}
	.st1{fill:#152333;}
</style>
<g>
	<g>
		<g>
			<path class="st0" d="M525.4,357.9c13.2-16.4,13.8-39.8,1-57l-63-84c-24.5,24.5-34,58.3-28.6,90L525.4,357.9z"/>
			<path class="st0" d="M368.8,269.8l-32.3-85.7c-5.7-15.2-20.3-25.3-36.6-25.3l34.5,91.7L368.8,269.8z"/>
		</g>
		<path class="st1" d="M569,408.5c0.4-1.3,0.6-2.7,0.6-4.2c0-6.1-3.3-11.4-8.3-14.1L201.8,187.9c0,18,9.7,34.5,25.3,43.3l127,71.4
			l16.4,43.6c-43.6-27.2-101.8-21.9-139.7,16l0,0l158.5,85.3c18.1,9.7,40.4,6.5,54.9-8.1l19.1-19.1h126.9v0L569,408.5z M553.5,409.5
			c-2.9,0-5.2-2.3-5.2-5.2c0-2.9,2.3-5.2,5.2-5.2c2.9,0,5.2,2.3,5.2,5.2C558.8,407.2,556.4,409.5,553.5,409.5z"/>
	</g>
	<g>
		<path d="M474.5,433.5h-3.2v-1.1h7.7v1.1h-3.2v8.8h-1.3V433.5z M480.8,432.4h2l3.2,8l3.1-8h2v9.9h-1.3v-8.7h0l-3.5,8.7h-0.7
			l-3.5-8.7h0v8.7h-1.3V432.4z"/>
	</g>
</g>
</svg>
