<?xml version="1.0" encoding="utf-8"?>
<!-- Generator: Adobe Illustrator 19.1.0, SVG Export Plug-In . SVG Version: 6.00 Build 0)  -->
<svg version="1.1" id="Layer_1" xmlns="http://www.w3.org/2000/svg" xmlns:xlink="http://www.w3.org/1999/xlink" x="0px" y="0px"
	 viewBox="0 0 792 612" style="enable-background:new 0 0 792 612;" xml:space="preserve">
<style type="text/css">
	.st0{fill:#FFFFFF;}
</style>
<g>
	<g>
		<g>
			<g>
				<path class="st0" d="M246,334.1c4.2-5.3,4.4-12.8,0.3-18.4L226,288.7c-7.9,7.9-11,18.8-9.2,29L246,334.1z"/>
				<path class="st0" d="M195.5,305.8l-10.4-27.6c-1.8-4.9-6.5-8.2-11.8-8.2l11.1,29.5L195.5,305.8z"/>
			</g>
			<path class="st0" d="M260,350.4c0.1-0.4,0.2-0.9,0.2-1.3c0-2-1.1-3.7-2.7-4.5l-115.8-65.2c0,5.8,3.1,11.1,8.2,14l40.9,23
				l5.3,14.1c-14.1-8.8-32.8-7.1-45,5.2l0,0l51,27.5c5.8,3.1,13,2.1,17.7-2.6l6.2-6.2h40.9v0L260,350.4z M255,350.8
				c-0.9,0-1.7-0.8-1.7-1.7c0-0.9,0.8-1.7,1.7-1.7c0.9,0,1.7,0.8,1.7,1.7C256.7,350,255.9,350.8,255,350.8z"/>
		</g>
		<g>
			<path class="st0" d="M376.1,302c-1.9-1.4-4.3-2-7.2-2c-1.2,0-2.4,0.1-3.5,0.4c-1.1,0.2-2.2,0.6-3.1,1.2c-0.9,0.6-1.6,1.3-2.1,2.2
				c-0.5,0.9-0.8,2.1-0.8,3.5c0,1.3,0.4,2.4,1.2,3.2s1.8,1.5,3.1,2c1.3,0.5,2.7,0.9,4.4,1.3c1.6,0.3,3.3,0.7,5,1.1
				c1.7,0.4,3.3,0.9,5,1.4c1.6,0.5,3.1,1.3,4.4,2.2c1.3,0.9,2.3,2.1,3.1,3.4c0.8,1.4,1.2,3.1,1.2,5.2c0,2.2-0.5,4.2-1.5,5.8
				c-1,1.6-2.3,2.9-3.9,3.9c-1.6,1-3.4,1.7-5.3,2.2c-2,0.5-3.9,0.7-5.8,0.7c-2.4,0-4.6-0.3-6.7-0.9s-4-1.5-5.6-2.7
				c-1.6-1.2-2.9-2.7-3.8-4.6c-0.9-1.9-1.4-4.1-1.4-6.7h5.3c0,1.8,0.3,3.3,1,4.6c0.7,1.3,1.6,2.3,2.7,3.2c1.1,0.8,2.4,1.4,3.9,1.8
				c1.5,0.4,3,0.6,4.6,0.6c1.3,0,2.5-0.1,3.8-0.4s2.4-0.6,3.5-1.2c1-0.6,1.9-1.4,2.5-2.3c0.6-1,1-2.3,1-3.8c0-1.5-0.4-2.6-1.2-3.6
				c-0.8-0.9-1.8-1.7-3.1-2.2c-1.3-0.6-2.7-1-4.4-1.4c-1.6-0.4-3.3-0.7-5-1.1c-1.7-0.4-3.3-0.8-5-1.3c-1.6-0.5-3.1-1.1-4.4-2
				c-1.3-0.8-2.3-1.9-3.1-3.1c-0.8-1.3-1.2-2.9-1.2-4.8c0-2.1,0.4-4,1.3-5.5c0.9-1.6,2-2.8,3.5-3.9c1.4-1,3.1-1.8,4.9-2.3
				c1.8-0.5,3.7-0.7,5.7-0.7c2.2,0,4.2,0.3,6,0.8c1.9,0.5,3.5,1.3,4.9,2.4c1.4,1.1,2.5,2.5,3.3,4.2c0.8,1.7,1.3,3.7,1.3,6h-5.3
				C379,305.6,377.9,303.4,376.1,302z"/>
			<path class="st0" d="M417.2,338.6l-6.2-24.4h-0.1l-6.2,24.4h-5.5l-9.8-30.7h5.6l6.9,25.1h0.1l6.2-25.1h5.5l6.4,25.1h0.1l6.9-25.1
				h5.2l-9.8,30.7H417.2z"/>
			<path class="st0" d="M437,302.4v-6.2h5v6.2H437z M442,308v30.7h-5V308H442z"/>
			<path class="st0" d="M446.5,312.4V308h5.2v-4.6c0-2.5,0.7-4.4,2.2-5.7c1.4-1.3,3.5-1.9,6.3-1.9c0.5,0,1,0,1.6,0.1
				c0.6,0.1,1.2,0.2,1.6,0.4v4.4c-0.4-0.2-0.9-0.3-1.4-0.3c-0.5-0.1-1-0.1-1.4-0.1c-1.2,0-2.2,0.2-2.8,0.7c-0.7,0.5-1,1.4-1,2.7v4.3
				h5.9v4.5h-5.9v26.2h-5v-26.2H446.5z"/>
			<path class="st0" d="M479.1,308v4.5h-6.1v19c0,0.6,0.1,1.1,0.1,1.4s0.3,0.6,0.6,0.8c0.3,0.2,0.7,0.3,1.2,0.4
				c0.5,0.1,1.1,0.1,1.9,0.1h2.3v4.5h-3.9c-1.3,0-2.4-0.1-3.3-0.3c-0.9-0.2-1.7-0.5-2.3-1c-0.6-0.5-1-1.1-1.3-2
				c-0.3-0.9-0.4-2-0.4-3.4v-19.5h-5.2V308h5.2v-9.2h5v9.2H479.1z"/>
			<path class="st0" d="M533.4,336.3c-5.3,5.8-11.6,8.2-19.4,8.2c-6.6,0-13.9-2.3-19-6.7c-5.1-4.5-8.3-11.7-8.3-18.6
				c0-14.5,12.4-26.4,26.8-26.4c12.2,0,22.8,8.4,22.8,21c0,4.4-1,8.6-3.6,12.1c-2.6,3.5-6.9,6.5-11.4,6.5c-3,0-4.5-1.5-4.9-4.4
				c-2,2.6-4.6,4.1-8,4.1c-6.2,0-9.6-5.3-9.6-11.1c0-7.8,6.9-16.5,15-16.5c2.9,0,5.7,1.7,6.8,4.3l0.8-2.1h5l-5.1,16.6
				c-0.3,0.9-0.6,2.1-0.6,3c0,1.4,0.7,2.1,2.1,2.1c2.3,0,5.1-2.2,6.4-3.9c2.4-2.9,3.3-6.5,3.3-10.2c0-11.1-8.5-17.6-19.1-17.6
				c-6.2,0-11.1,1.9-15.6,6.3c-4.2,4.2-6.6,9.6-6.6,15.6c0,13,10,21.7,22.6,21.7c7.2,0,13-2.2,18.1-7.3L533.4,336.3z M517.1,320.6
				c0.7-1.9,1.4-4.5,1.4-6.5c0-2.8-1.6-4.8-4.5-4.8c-5.7,0-9.6,7-9.6,12c0,3.2,1.7,6.1,5.1,6.1C513.6,327.4,515.8,324,517.1,320.6z"
				/>
			<path class="st0" d="M554.5,296.3v42.3h-9.3v-42.3H554.5z"/>
			<path class="st0" d="M582.8,296.3c2,0,3.9,0.2,5.5,0.5s3.1,0.9,4.3,1.7c1.2,0.8,2.1,1.9,2.8,3.2c0.7,1.3,1,3,1,5
				c0,2.1-0.5,3.9-1.5,5.3c-1,1.4-2.4,2.6-4.3,3.5c2.6,0.8,4.6,2.1,5.8,3.9c1.3,1.9,1.9,4.1,1.9,6.8c0,2.1-0.4,4-1.2,5.5
				c-0.8,1.6-2,2.8-3.3,3.8c-1.4,1-3,1.7-4.8,2.2c-1.8,0.5-3.6,0.7-5.5,0.7h-20.5v-42.3H582.8z M581.6,313.4c1.7,0,3-0.4,4.1-1.2
				c1.1-0.8,1.6-2.1,1.6-3.9c0-1-0.2-1.8-0.5-2.4c-0.4-0.6-0.8-1.1-1.4-1.5s-1.3-0.6-2-0.7c-0.8-0.1-1.6-0.2-2.4-0.2h-8.7v9.9H581.6
				z M582.1,331.4c0.9,0,1.8-0.1,2.6-0.3c0.8-0.2,1.6-0.5,2.2-0.9c0.6-0.4,1.1-1,1.5-1.7c0.4-0.7,0.6-1.6,0.6-2.7
				c0-2.2-0.6-3.7-1.8-4.7c-1.2-0.9-2.8-1.4-4.9-1.4h-10.1v11.6H582.1z"/>
			<path class="st0" d="M617.8,296.3l9.9,29.1h0.1l9.4-29.1h13.1v42.3h-8.7v-30h-0.1l-10.4,30h-7.2l-10.4-29.7h-0.1v29.7h-8.7v-42.3
				H617.8z"/>
		</g>
	</g>
	<rect x="308.4" y="287.8" class="st0" width="5" height="59.2"/>
	<g>
		<path class="st0" d="M663.5,297.3h-3.2v-1.1h7.7v1.1h-3.2v8.8h-1.3V297.3z M669.8,296.3h2l3.2,8l3.1-8h2v9.9h-1.3v-8.7h0l-3.5,8.7
			h-0.7l-3.5-8.7h0v8.7h-1.3V296.3z"/>
	</g>
</g>
</svg>
