<?xml version="1.0" encoding="utf-8"?>
<!-- Generator: Adobe Illustrator 22.0.0, SVG Export Plug-In . SVG Version: 6.00 Build 0)  -->
<svg version="1.1" id="Layer_1" xmlns="http://www.w3.org/2000/svg" xmlns:xlink="http://www.w3.org/1999/xlink" x="0px" y="0px"
	 viewBox="0 0 100.6 69.6" style="enable-background:new 0 0 100.6 69.6;" xml:space="preserve">
<style type="text/css">
	.st0{fill:#00BBE6;}
	.st1{fill:#152333;}
</style>
<g>
	<g>
		<path class="st0" d="M69.7,60.1c-11.8,0-22.4-6.5-27.8-16.6c-5.4,1.8-10.1,5.3-13.4,9.8c-2.8-1.6-6-2.5-9.4-2.5
			c-10.5,0-19,8.5-19,19h78.3c0-3.4-0.6-6.6-1.7-9.7L69.7,60.1L69.7,60.1z"/>
		<path class="st1" d="M94.3,56.8c0.1-0.4,0.2-0.7,0.2-1.1c0-1.7-0.9-3.1-2.3-3.9l-10.8-6.1c3.6-4.6,3.8-11.2,0.2-16L63.8,6.1
			c-6.9,6.9-9.5,16.3-8.1,25.2L0,0c4.6,16.6,19.4,27.7,35.8,28.3c0.7,1.9,4.3,11.6,4.3,11.6c0.5,1.2,1,2.4,1.6,3.6c0,0,0,0,0,0
			c2.8-0.9,5.7-1.4,8.8-1.4c11.9,0,22.1,7.5,26,18.1H100l0,0L94.3,56.8z M90,57.1c-0.8,0-1.4-0.6-1.4-1.4c0-0.8,0.6-1.4,1.4-1.4
			c0.8,0,1.4,0.6,1.4,1.4C91.5,56.5,90.8,57.1,90,57.1z"/>
	</g>
	<g>
		<path d="M82.9,64.1H82v-0.3h2.1v0.3h-0.9v2.4h-0.4V64.1z M84.6,63.8h0.5L86,66l0.8-2.2h0.5v2.7h-0.4v-2.4l0,0l-1,2.4h-0.2l-1-2.4
			l0,0v2.4h-0.4V63.8z"/>
	</g>
</g>
</svg>
